<!DOCTYPE svg PUBLIC "-//W3C//DTD SVG 20010904//EN" "http://www.w3.org/TR/2001/REC-SVG-20010904/DTD/svg10.dtd">
<svg version="1.0" xmlns="http://www.w3.org/2000/svg" width="319px" height="292px" viewBox="0 0 3190 2920" preserveAspectRatio="xMidYMid meet">
<g id="layer101" fill="#1b3854" stroke="none">
 <path d="M0 1460 l0 -1460 1595 0 1595 0 0 1460 0 1460 -1595 0 -1595 0 0 -1460z"/>
 </g>
<g id="layer102" fill="#0f3a74" stroke="none">
 <path d="M0 1460 l0 -1460 1595 0 1595 0 0 1460 0 1460 -1595 0 -1595 0 0 -1460z m550 746 c0 -3 -5 -8 -12 -12 -7 -4 -8 -3 -4 4 7 12 16 16 16 8z m2075 -36 c3 -5 1 -10 -4 -10 -6 0 -11 5 -11 10 0 6 2 10 4 10 3 0 8 -4 11 -10z m21 -47 c-7 -7 -26 7 -26 19 0 6 6 6 15 -2 9 -7 13 -15 11 -17z m1 -35 c-3 -8 -6 -5 -6 6 -1 11 2 17 5 13 3 -3 4 -12 1 -19z m10 -50 c-3 -8 -6 -5 -6 6 -1 11 2 17 5 13 3 -3 4 -12 1 -19z m10 -45 c-4 -3 -7 0 -7 7 0 7 3 10 7 7 3 -4 3 -10 0 -14z m10 -35 c-3 -8 -6 -5 -6 6 -1 11 2 17 5 13 3 -3 4 -12 1 -19z m10 -130 c-2 -13 -4 -5 -4 17 -1 22 1 32 4 23 2 -10 2 -28 0 -40z m-10 -110 c-3 -8 -6 -5 -6 6 -1 11 2 17 5 13 3 -3 4 -12 1 -19z m-10 -45 c-4 -3 -7 0 -7 7 0 7 3 10 7 7 3 -4 3 -10 0 -14z m-10 -30 c-4 -3 -7 0 -7 7 0 7 3 10 7 7 3 -4 3 -10 0 -14z m-26 -56 c-10 -9 -11 -8 -5 6 3 10 9 15 12 12 3 -3 0 -11 -7 -18z m-2101 -50 c0 -2 -10 -12 -22 -23 l-23 -19 19 23 c18 21 26 27 26 19z m2070 -11 c0 -3 -5 -8 -12 -12 -7 -4 -8 -3 -4 4 7 12 16 16 16 8z m-20 -29 c0 -2 -15 -16 -32 -33 l-33 -29 29 33 c28 30 36 37 36 29z m-2100 -27 c-6 -11 -13 -20 -16 -20 -2 0 0 9 6 20 6 11 13 20 16 20 2 0 0 -9 -6 -20z m-39 -63 c-10 -9 -11 -8 -5 6 3 10 9 15 12 12 3 -3 0 -11 -7 -18z m-14 -34 c-4 -3 -7 0 -7 7 0 7 3 10 7 7 3 -4 3 -10 0 -14z m-10 -30 c-4 -3 -7 0 -7 7 0 7 3 10 7 7 3 -4 3 -10 0 -14z m1450 -20 c-4 -3 -10 -3 -14 0 -3 4 0 7 7 7 7 0 10 -3 7 -7z m-1470 -40 c-4 -3 -7 0 -7 7 0 7 3 10 7 7 3 -4 3 -10 0 -14z m-10 -65 c-3 -7 -5 -2 -5 12 0 14 2 19 5 13 2 -7 2 -19 0 -25z m0 -165 c-3 -10 -5 -4 -5 12 0 17 2 24 5 18 2 -7 2 -21 0 -30z m10 -45 c-3 -8 -6 -5 -6 6 -1 11 2 17 5 13 3 -3 4 -12 1 -19z m20 -90 c-3 -8 -6 -5 -6 6 -1 11 2 17 5 13 3 -3 4 -12 1 -19z m10 -35 c-4 -3 -7 0 -7 7 0 7 3 10 7 7 3 -4 3 -10 0 -14z m13 -17 c0 -3 -5 -8 -12 -12 -7 -4 -8 -3 -4 4 7 12 16 16 16 8z m535 -6 c3 -5 4 -10 1 -10 -3 0 -8 5 -11 10 -3 6 -4 10 -1 10 3 0 8 -4 11 -10z"/>
 </g>
<g id="layer103" fill="#294450" stroke="none">
 <path d="M0 1460 l0 -1460 1595 0 1595 0 0 1460 0 1460 -1595 0 -1595 0 0 -1460z m1165 1051 c16 -7 11 -9 -23 -12 -46 -5 -79 5 -46 14 28 7 47 6 69 -2z m211 -13 c-18 -10 -39 -2 -31 12 3 4 15 6 26 3 19 -5 19 -7 5 -15z m-129 6 c-3 -3 -12 -4 -19 -1 -8 3 -5 6 6 6 11 1 17 -2 13 -5z m-184 -11 c-7 -2 -19 -2 -25 0 -7 3 -2 5 12 5 14 0 19 -2 13 -5z m377 -3 c18 -12 2 -12 -25 0 -13 6 -15 9 -5 9 8 0 22 -4 30 -9z m40 -10 c0 -5 -2 -10 -4 -10 -3 0 -8 5 -11 10 -3 6 -1 10 4 10 6 0 11 -4 11 -10z m65 -15 c43 -15 37 -19 -14 -9 -17 4 -31 10 -31 15 0 11 -3 11 45 -6z m-590 -5 c-3 -5 -12 -10 -18 -10 -7 0 -6 4 3 10 19 12 23 12 15 0z m-50 -13 c-20 -14 -65 -28 -65 -21 0 5 61 32 75 33 5 1 1 -5 -10 -12z m702 -14 c-4 -3 -10 -3 -14 0 -3 4 0 7 7 7 7 0 10 -3 7 -7z m38 -3 c3 -6 -1 -7 -9 -4 -18 7 -21 14 -7 14 6 0 13 -4 16 -10z m-810 -20 c3 -6 -4 -10 -17 -10 -18 0 -20 2 -8 10 19 12 18 12 25 0z m890 -10 c3 -5 2 -10 -4 -10 -5 0 -13 5 -16 10 -3 6 -2 10 4 10 5 0 13 -4 16 -10z m-940 -10 c3 -5 4 -10 1 -10 -3 0 -8 5 -11 10 -3 6 -4 10 -1 10 3 0 8 -4 11 -10z m985 -20 c-9 -6 -9 -9 -1 -13 8 -4 8 -5 0 -3 -7 1 -13 9 -15 18 -1 11 3 15 13 11 11 -4 12 -8 3 -13z m-1040 -16 c-25 -14 -53 -33 -62 -41 -10 -9 -18 -13 -18 -10 0 11 94 76 110 77 8 0 -5 -12 -30 -26z m1080 -5 c0 -6 -4 -7 -10 -4 -5 3 -10 11 -10 16 0 6 5 7 10 4 6 -3 10 -11 10 -16z m90 -49 c13 -8 13 -10 -2 -10 -9 0 -20 5 -23 10 -8 13 5 13 25 0z m-1260 -6 c0 -3 -21 -26 -47 -51 -27 -26 -56 -58 -66 -72 -17 -24 -18 -24 -12 -4 3 12 32 47 63 78 59 56 62 59 62 49z m1313 -34 c10 -12 9 -12 -4 -2 -9 6 -18 9 -21 6 -3 -3 -9 -1 -12 4 -9 15 22 8 37 -8z m76 -50 c4 0 22 -18 40 -40 17 -22 30 -40 28 -40 -2 0 -23 18 -47 39 -25 22 -48 37 -52 35 -4 -3 -8 0 -8 6 0 7 7 9 16 6 9 -3 19 -6 23 -6z m596 -40 c3 -5 1 -10 -4 -10 -6 0 -11 5 -11 10 0 6 2 10 4 10 3 0 8 -4 11 -10z m-2149 -60 c-14 -17 -26 -29 -26 -25 0 10 44 63 49 59 2 -2 -8 -17 -23 -34z m2170 13 c-7 -7 -26 7 -26 19 0 6 6 6 15 -2 9 -7 13 -15 11 -17z m-573 -16 c-12 -5 -26 -19 -31 -31 -6 -11 -11 -16 -11 -10 -1 19 40 65 52 57 7 -4 3 -10 -10 -16z m581 -12 c-4 -8 -8 -15 -10 -15 -2 0 -4 7 -4 15 0 8 4 15 10 15 5 0 7 -7 4 -15z m32 -41 c12 -25 14 -38 6 -46 -8 -8 -9 -4 -6 13 4 17 3 20 -4 10 -7 -10 -11 -4 -14 23 -2 20 -3 36 -1 36 1 0 10 -16 19 -36z m-2249 -11 c-4 -3 -7 0 -7 7 0 7 3 10 7 7 3 -4 3 -10 0 -14z m1553 -18 c-19 -19 -39 -35 -44 -35 -10 1 63 70 73 70 3 0 -10 -16 -29 -35z m667 13 c-3 -8 -6 -5 -6 6 -1 11 2 17 5 13 3 -3 4 -12 1 -19z m-2233 -7 c3 -5 -1 -11 -9 -14 -9 -4 -12 -1 -8 9 6 16 10 17 17 5z m2256 -65 c0 -26 -6 -18 -14 19 -5 22 -4 26 4 15 5 -8 10 -24 10 -34z m40 13 c0 -6 -4 -7 -10 -4 -5 3 -10 11 -10 16 0 6 5 7 10 4 6 -3 10 -11 10 -16z m-2328 -11 c-7 -7 -12 -8 -12 -2 0 14 12 26 19 19 2 -3 -1 -11 -7 -17z m1547 0 c-2 -2 -20 -16 -39 -33 l-35 -30 34 37 c19 21 37 36 39 33 3 -3 3 -6 1 -7z m791 -12 c0 -3 -5 -8 -12 -12 -7 -4 -8 -3 -4 4 7 12 16 16 16 8z m-2350 -10 c0 -3 -4 -8 -10 -11 -5 -3 -10 -1 -10 4 0 6 5 11 10 11 6 0 10 -2 10 -4z m2307 -43 c-4 -3 -7 0 -7 7 0 7 3 10 7 7 3 -4 3 -10 0 -14z m-2329 -28 c-3 -3 -9 2 -12 12 -6 14 -5 15 5 6 7 -7 10 -15 7 -18z m2342 -37 c0 -16 -4 -28 -10 -28 -5 0 -10 19 -10 43 0 31 3 38 10 27 5 -8 10 -27 10 -42z m-881 15 c-13 -16 -25 -30 -26 -32 -2 -2 -3 0 -3 5 0 14 33 54 44 54 5 0 -1 -12 -15 -27z m941 23 c0 -3 -4 -8 -10 -11 -5 -3 -10 -1 -10 4 0 6 5 11 10 11 6 0 10 -2 10 -4z m-2422 -41 c-6 -14 -15 -25 -20 -25 -5 0 -1 11 8 25 9 14 18 25 20 25 2 0 -2 -11 -8 -25z m2432 -7 c0 -19 -2 -20 -10 -8 -13 19 -13 30 0 30 6 0 10 -10 10 -22z m-1029 -51 c-13 -12 -20 -15 -16 -7 14 26 28 41 33 35 3 -3 -5 -16 -17 -28z m1036 6 c-4 -3 -7 0 -7 7 0 7 3 10 7 7 3 -4 3 -10 0 -14z m-2471 -39 c-8 -21 -15 -31 -15 -22 -1 18 20 70 26 65 2 -2 -3 -21 -11 -43z m2381 14 c-3 -7 -5 -2 -5 12 0 14 2 19 5 13 2 -7 2 -19 0 -25z m-1057 -91 c-45 -45 -79 -75 -75 -67 12 21 149 157 155 153 2 -2 -34 -41 -80 -86z m1035 2 c-8 -19 -13 -25 -9 -14 3 11 9 36 12 55 5 25 7 29 10 14 2 -12 -4 -37 -13 -55z m-1747 44 c-10 -2 -26 -2 -35 0 -10 3 -2 5 17 5 19 0 27 -2 18 -5z m-58 -7 c0 -8 -51 -13 -56 -5 -3 5 9 9 25 9 17 0 31 -2 31 -4z m230 0 c0 -9 -30 -14 -35 -6 -4 6 3 10 14 10 12 0 21 -2 21 -4z m80 -21 c0 -2 -12 -2 -27 0 -16 2 -32 4 -36 4 -5 1 -6 5 -2 10 5 9 65 -5 65 -14z m-884 -53 c-11 -10 -14 3 -7 38 l6 35 3 -33 c2 -19 1 -36 -2 -40z m474 54 c-8 -7 -28 -16 -45 -19 -26 -6 -25 -4 10 13 49 23 53 24 35 6z m2037 -3 c-4 -3 -7 0 -7 7 0 7 3 10 7 7 3 -4 3 -10 0 -14z m-1587 -3 c0 -5 -7 -10 -16 -10 -8 0 -12 5 -9 10 3 6 10 10 16 10 5 0 9 -4 9 -10z m-533 -37 c-4 -3 -7 0 -7 7 0 7 3 10 7 7 3 -4 3 -10 0 -14z m624 -10 c13 -15 12 -15 -11 -3 -34 17 -36 20 -18 20 9 0 22 -7 29 -17z m1496 -15 c-3 -7 -5 -2 -5 12 0 14 2 19 5 13 2 -7 2 -19 0 -25z m-2167 10 c-8 -7 -20 -20 -28 -28 -12 -13 -13 -13 -6 0 12 25 26 40 37 40 6 0 5 -6 -3 -12z m2030 -22 c0 -14 -4 -28 -10 -31 -5 -3 -10 -1 -10 5 0 6 -4 8 -10 5 -6 -3 -7 1 -3 10 5 14 8 14 15 3 7 -9 8 -7 5 10 -3 12 -1 22 4 22 5 0 9 -11 9 -24z m-1274 -18 c54 -36 74 -53 74 -64 0 -4 -10 2 -22 13 -13 12 -45 35 -72 52 -28 17 -45 31 -40 31 6 0 33 -15 60 -32z m-1114 -63 c-2 -57 -7 -83 -14 -79 -15 10 -1 164 15 164 1 0 1 -38 -1 -85z m308 61 c0 -3 -5 -8 -12 -12 -7 -4 -8 -3 -4 4 7 12 16 16 16 8z m960 -10 c0 -2 -8 -10 -17 -17 -16 -13 -17 -12 -4 4 13 16 21 21 21 13z m-1027 -59 c-11 -12 -26 -32 -32 -44 -6 -13 -17 -23 -24 -23 -7 0 -8 3 -2 8 6 4 23 26 39 50 16 23 31 40 34 37 3 -3 -4 -15 -15 -28z m2104 26 c-4 -3 -10 -3 -14 0 -3 4 0 7 7 7 7 0 10 -3 7 -7z m190 -55 c-2 -13 -4 -3 -4 22 0 25 2 35 4 23 2 -13 2 -33 0 -45z m-1307 48 c0 -2 -8 -10 -17 -17 -16 -13 -17 -12 -4 4 13 16 21 21 21 13z m1100 -16 c0 -5 -5 -10 -11 -10 -5 0 -7 5 -4 10 3 6 8 10 11 10 2 0 4 -4 4 -10z m-53 -68 c-20 -21 -51 -46 -69 -57 -22 -12 -11 2 32 42 70 66 97 77 37 15z m-896 -23 c5 -10 15 -16 22 -14 6 3 23 -4 36 -14 18 -14 21 -20 11 -26 -9 -5 -11 -4 -6 3 7 11 -6 17 -27 13 -5 -1 -5 4 -1 10 5 8 2 10 -7 7 -9 -4 -31 10 -55 34 -31 33 -33 37 -11 23 15 -10 32 -26 38 -36z m-65 29 c4 -6 3 -8 -4 -4 -6 3 -20 -6 -31 -20 -12 -15 -21 -23 -21 -18 0 7 40 54 46 54 2 0 6 -5 10 -12z m-1313 -75 c3 -24 2 -43 -3 -43 -10 0 -23 68 -14 81 9 14 10 10 17 -38z m177 38 c0 -6 -4 -13 -10 -16 -5 -3 -10 1 -10 9 0 9 5 16 10 16 6 0 10 -4 10 -9z m2353 -16 c4 -8 2 -17 -3 -20 -6 -4 -10 3 -10 14 0 25 6 27 13 6z m-2373 -26 c0 -5 -4 -9 -10 -9 -5 0 -10 7 -10 16 0 8 5 12 10 9 6 -3 10 -10 10 -16z m1090 10 c0 -5 -4 -8 -9 -4 -5 3 -21 -9 -35 -27 -14 -18 -26 -29 -26 -24 0 12 51 66 62 66 4 0 8 -5 8 -11z m280 -45 c0 -2 -13 2 -29 10 -16 9 -32 12 -36 8 -5 -4 -5 -1 -1 5 6 10 14 10 37 -2 16 -9 29 -18 29 -21z m647 20 c-3 -3 -12 -4 -19 -1 -8 3 -5 6 6 6 11 1 17 -2 13 -5z m-2030 -21 c-4 -3 -7 0 -7 7 0 7 3 10 7 7 3 -4 3 -10 0 -14z m1473 -34 c0 -5 -4 -9 -10 -9 -5 0 -10 5 -10 10 0 6 -6 10 -14 10 -8 0 -17 4 -21 10 -3 5 7 5 25 -1 16 -6 30 -15 30 -20z m-1602 -39 l0 -25 -8 25 c-4 14 -8 34 -8 45 l-1 20 9 -20 c5 -11 8 -31 8 -45z m2067 50 c-28 -12 -37 -12 -30 0 3 6 16 10 28 9 21 0 21 -1 2 -9z m427 -12 c-7 -7 -12 -8 -12 -2 0 14 12 26 19 19 2 -3 -1 -11 -7 -17z m-1365 -8 c-14 -11 -29 -29 -32 -40 -4 -11 -13 -20 -21 -20 -9 0 -1 15 22 40 21 22 42 40 47 40 5 0 -2 -9 -16 -20z m890 4 c-3 -3 -12 -4 -19 -1 -8 3 -5 6 6 6 11 1 17 -2 13 -5z m-1907 -14 c0 -5 -4 -10 -10 -10 -5 0 -10 5 -10 10 0 6 5 10 10 10 6 0 10 -4 10 -10z m1553 3 c-7 -2 -19 -2 -25 0 -7 3 -2 5 12 5 14 0 19 -2 13 -5z m62 -3 c3 -5 -1 -10 -10 -10 -9 0 -13 5 -10 10 3 6 8 10 10 10 2 0 7 -4 10 -10z m254 6 c-2 -2 -17 -6 -34 -10 -22 -5 -26 -4 -15 4 14 9 59 15 49 6z m508 -33 c-4 -3 -7 0 -7 7 0 7 3 10 7 7 3 -4 3 -10 0 -14z m-2395 -55 c-6 -6 -7 0 -4 19 5 21 7 23 10 9 2 -10 0 -22 -6 -28z m2380 20 c-7 -7 -12 -8 -12 -2 0 14 12 26 19 19 2 -3 -1 -11 -7 -17z m-1417 -8 c4 -6 1 -9 -6 -8 -7 2 -18 -7 -24 -19 -9 -22 -25 -31 -25 -16 0 6 41 53 46 53 2 0 6 -5 9 -10z m-1041 -45 c7 -28 6 -29 -7 -10 -8 10 -12 25 -10 33 7 16 9 14 17 -23z m2453 18 c-4 -3 -10 -3 -14 0 -3 4 0 7 7 7 7 0 10 -3 7 -7z m-1480 -40 c-4 -3 -7 0 -7 7 0 7 3 10 7 7 3 -4 3 -10 0 -14z m1465 -5 c-7 -7 -12 -8 -12 -2 0 14 12 26 19 19 2 -3 -1 -11 -7 -17z m-2408 -78 c5 -17 4 -20 -2 -10 -5 8 -13 26 -16 40 -5 17 -4 20 2 10 5 -8 13 -26 16 -40z m43 33 c-4 -3 -7 0 -7 7 0 7 3 10 7 7 3 -4 3 -10 0 -14z m848 -3 c-3 -5 -11 -10 -16 -10 -6 0 -7 5 -4 10 3 6 11 10 16 10 6 0 7 -4 4 -10z m1486 -27 c-8 -15 -10 -15 -11 -2 0 17 10 32 18 25 2 -3 -1 -13 -7 -23z m-2321 -5 c0 -13 3 -34 6 -48 5 -17 3 -22 -4 -15 -16 15 -27 85 -13 85 6 0 11 -10 11 -22z m782 -11 c-12 -13 -22 -29 -22 -35 0 -7 -2 -12 -4 -12 -2 0 -13 -3 -23 -6 -10 -4 -2 10 22 35 21 22 41 41 44 41 2 0 -5 -10 -17 -23z m1510 -47 c-23 -41 -33 -38 -13 4 9 18 19 32 23 30 4 -3 -1 -18 -10 -34z m-2312 -35 c0 -5 -5 -3 -10 5 -5 8 -10 20 -10 25 0 6 5 3 10 -5 5 -8 10 -19 10 -25z m731 -8 c-13 -13 -26 -3 -16 12 3 6 11 8 17 5 6 -4 6 -10 -1 -17z m-701 -18 c-14 -26 -18 -24 -12 6 2 14 8 22 13 19 5 -3 5 -14 -1 -25z m2233 -19 c-15 -22 -32 -40 -36 -40 -4 0 7 18 24 40 42 51 48 52 12 0z m-1573 5 c-7 -9 -15 -13 -18 -10 -3 2 1 11 8 20 7 9 15 13 18 10 3 -2 -1 -11 -8 -20z m-644 -20 c-3 -9 -10 -13 -16 -10 -6 4 -5 11 3 20 15 16 22 11 13 -10z m614 -8 c0 -8 -6 -14 -14 -14 -8 0 -12 6 -9 14 3 7 9 13 14 13 5 0 9 -6 9 -13z m-609 -30 c-10 -9 -11 -8 -5 6 3 10 9 15 12 12 3 -3 0 -11 -7 -18z m2157 -27 c-12 -16 -23 -30 -25 -30 -7 0 20 45 31 52 18 13 18 9 -6 -22z m-2138 16 c0 -3 -5 -8 -12 -12 -7 -4 -8 -3 -4 4 7 12 16 16 16 8z m620 -82 c0 -10 -13 -1 -57 42 l-48 47 53 -43 c28 -23 52 -44 52 -46z m1470 13 c0 -2 -15 -16 -32 -33 l-33 -29 29 33 c28 30 36 37 36 29z m-1426 -56 c-2 -3 -12 3 -22 13 -16 17 -16 18 5 5 12 -7 20 -15 17 -18z m1308 -61 c-57 -52 -102 -76 -102 -53 0 4 6 8 13 8 14 0 54 27 98 68 54 48 46 29 -9 -23z m-1247 20 c3 -6 -1 -7 -9 -4 -18 7 -21 14 -7 14 6 0 13 -4 16 -10z m75 -46 c0 -2 -13 2 -30 11 -16 9 -30 18 -30 21 0 2 14 -2 30 -11 17 -9 30 -18 30 -21z m65 -34 c3 -5 1 -10 -4 -10 -6 0 -11 5 -11 10 0 6 2 10 4 10 3 0 8 -4 11 -10z m30 -20 c3 -5 4 -10 1 -10 -3 0 -8 5 -11 10 -3 6 -4 10 -1 10 3 0 8 -4 11 -10z m965 5 c0 -2 -13 -11 -30 -20 -16 -9 -30 -12 -30 -7 0 4 12 13 28 19 15 6 28 11 30 12 1 1 2 -1 2 -4z m-935 -15 c3 -5 1 -10 -4 -10 -6 0 -11 5 -11 10 0 6 2 10 4 10 3 0 8 -4 11 -10z m45 -20 c8 -5 11 -10 5 -10 -5 0 -17 5 -25 10 -8 5 -10 10 -5 10 6 0 17 -5 25 -10z m70 -24 c-7 -7 -13 -7 -20 0 -6 6 -3 10 10 10 13 0 16 -4 10 -10z m695 4 c3 -5 1 -10 -4 -10 -6 0 -11 5 -11 10 0 6 2 10 4 10 3 0 8 -4 11 -10z m32 3 c-4 -3 -10 -3 -14 0 -3 4 0 7 7 7 7 0 10 -3 7 -7z m-691 -12 c-4 -5 24 -14 61 -20 116 -18 120 -19 52 -16 -37 1 -70 4 -75 7 -5 3 -22 8 -37 12 -25 6 -30 26 -6 26 6 0 8 -4 5 -9z m609 -11 c-3 -5 -14 -10 -23 -9 -14 0 -13 2 3 9 27 11 27 11 20 0z m-48 -6 c-3 -3 -12 -4 -19 -1 -8 3 -5 6 6 6 11 1 17 -2 13 -5z m-72 -32 c-3 -3 -11 0 -18 7 -9 10 -8 11 6 5 10 -3 15 -9 12 -12z m50 8 c-3 -5 -12 -7 -20 -3 -21 7 -19 13 6 13 11 0 18 -4 14 -10z m-98 -7 c-4 -3 -10 -3 -14 0 -3 4 0 7 7 7 7 0 10 -3 7 -7z m-52 -13 c-3 -5 -17 -10 -30 -10 -13 0 -27 5 -30 10 -4 6 8 10 30 10 22 0 34 -4 30 -10z"/>
 </g>
<g id="layer104" fill="#1c4576" stroke="none">
 <path d="M0 1460 l0 -1460 1595 0 1595 0 0 1460 0 1460 -1595 0 -1595 0 0 -1460z m1165 1051 c16 -7 11 -9 -23 -12 -46 -5 -79 5 -46 14 28 7 47 6 69 -2z m211 -13 c-18 -10 -39 -2 -31 12 3 4 15 6 26 3 19 -5 19 -7 5 -15z m-129 6 c-3 -3 -12 -4 -19 -1 -8 3 -5 6 6 6 11 1 17 -2 13 -5z m-184 -11 c-7 -2 -19 -2 -25 0 -7 3 -2 5 12 5 14 0 19 -2 13 -5z m377 -3 c18 -12 2 -12 -25 0 -13 6 -15 9 -5 9 8 0 22 -4 30 -9z m40 -10 c0 -5 -2 -10 -4 -10 -3 0 -8 5 -11 10 -3 6 -1 10 4 10 6 0 11 -4 11 -10z m65 -15 c43 -15 37 -19 -14 -9 -17 4 -31 10 -31 15 0 11 -3 11 45 -6z m-590 -5 c-3 -5 -12 -10 -18 -10 -7 0 -6 4 3 10 19 12 23 12 15 0z m-50 -13 c-20 -14 -65 -28 -65 -21 0 5 61 32 75 33 5 1 1 -5 -10 -12z m702 -14 c-4 -3 -10 -3 -14 0 -3 4 0 7 7 7 7 0 10 -3 7 -7z m38 -3 c3 -6 -1 -7 -9 -4 -18 7 -21 14 -7 14 6 0 13 -4 16 -10z m-810 -20 c3 -6 -4 -10 -17 -10 -18 0 -20 2 -8 10 19 12 18 12 25 0z m890 -10 c3 -5 2 -10 -4 -10 -5 0 -13 5 -16 10 -3 6 -2 10 4 10 5 0 13 -4 16 -10z m-940 -10 c3 -5 4 -10 1 -10 -3 0 -8 5 -11 10 -3 6 -4 10 -1 10 3 0 8 -4 11 -10z m985 -20 c-9 -6 -9 -9 -1 -13 8 -4 8 -5 0 -3 -7 1 -13 9 -15 18 -1 11 3 15 13 11 11 -4 12 -8 3 -13z m-1040 -16 c-25 -14 -53 -33 -62 -41 -10 -9 -18 -13 -18 -10 0 11 94 76 110 77 8 0 -5 -12 -30 -26z m1080 -5 c0 -6 -4 -7 -10 -4 -5 3 -10 11 -10 16 0 6 5 7 10 4 6 -3 10 -11 10 -16z m90 -49 c13 -8 13 -10 -2 -10 -9 0 -20 5 -23 10 -8 13 5 13 25 0z m-1260 -6 c0 -3 -21 -26 -47 -51 -27 -26 -56 -58 -66 -72 -17 -24 -18 -24 -12 -4 3 12 32 47 63 78 59 56 62 59 62 49z m1313 -34 c10 -12 9 -12 -4 -2 -9 6 -18 9 -21 6 -3 -3 -9 -1 -12 4 -9 15 22 8 37 -8z m647 -45 c0 -4 7 -13 15 -21 8 -9 15 -24 15 -34 0 -10 5 -22 10 -25 6 -4 8 -11 5 -16 -4 -5 -3 -9 2 -9 4 0 9 -21 9 -48 l2 -47 -13 45 c-20 70 -43 129 -60 153 -19 28 -20 43 0 23 8 -8 15 -17 15 -21z m-571 -5 c4 0 22 -18 40 -40 17 -22 30 -40 28 -40 -2 0 -23 18 -47 39 -25 22 -48 37 -52 35 -4 -3 -8 0 -8 6 0 7 7 9 16 6 9 -3 19 -6 23 -6z m-1553 -100 c-14 -17 -26 -29 -26 -25 0 10 44 63 49 59 2 -2 -8 -17 -23 -34z m1597 -3 c-12 -5 -26 -19 -31 -31 -6 -11 -11 -16 -11 -10 -1 19 40 65 52 57 7 -4 3 -10 -10 -16z m613 -53 c12 -25 14 -38 6 -46 -8 -8 -9 -4 -6 13 4 17 3 20 -4 10 -7 -10 -11 -4 -14 23 -2 20 -3 36 -1 36 1 0 10 -16 19 -36z m-2249 -11 c-4 -3 -7 0 -7 7 0 7 3 10 7 7 3 -4 3 -10 0 -14z m1553 -18 c-19 -19 -39 -35 -44 -35 -10 1 63 70 73 70 3 0 -10 -16 -29 -35z m-1566 6 c3 -5 -1 -11 -9 -14 -9 -4 -12 -1 -8 9 6 16 10 17 17 5z m2259 -90 c3 -26 2 -40 -4 -34 -5 5 -11 31 -14 58 -5 60 10 39 18 -24z m37 38 c0 -6 -4 -7 -10 -4 -5 3 -10 11 -10 16 0 6 5 7 10 4 6 -3 10 -11 10 -16z m-2328 -11 c-7 -7 -12 -8 -12 -2 0 14 12 26 19 19 2 -3 -1 -11 -7 -17z m1547 0 c-2 -2 -20 -16 -39 -33 l-35 -30 34 37 c19 21 37 36 39 33 3 -3 3 -6 1 -7z m791 -12 c0 -3 -5 -8 -12 -12 -7 -4 -8 -3 -4 4 7 12 16 16 16 8z m-2350 -10 c0 -3 -4 -8 -10 -11 -5 -3 -10 -1 -10 4 0 6 5 11 10 11 6 0 10 -2 10 -4z m-22 -71 c-3 -3 -9 2 -12 12 -6 14 -5 15 5 6 7 -7 10 -15 7 -18z m2342 -37 c0 -16 -4 -28 -10 -28 -5 0 -10 19 -10 43 0 31 3 38 10 27 5 -8 10 -27 10 -42z m-881 15 c-13 -16 -25 -30 -26 -32 -2 -2 -3 0 -3 5 0 14 33 54 44 54 5 0 -1 -12 -15 -27z m941 23 c0 -3 -4 -8 -10 -11 -5 -3 -10 -1 -10 4 0 6 5 11 10 11 6 0 10 -2 10 -4z m-2422 -41 c-6 -14 -15 -25 -20 -25 -5 0 -1 11 8 25 9 14 18 25 20 25 2 0 -2 -11 -8 -25z m2432 -7 c0 -19 -2 -20 -10 -8 -13 19 -13 30 0 30 6 0 10 -10 10 -22z m-1029 -51 c-13 -12 -20 -15 -16 -7 14 26 28 41 33 35 3 -3 -5 -16 -17 -28z m1036 6 c-4 -3 -7 0 -7 7 0 7 3 10 7 7 3 -4 3 -10 0 -14z m-2471 -39 c-8 -21 -15 -31 -15 -22 -1 18 20 70 26 65 2 -2 -3 -21 -11 -43z m2379 4 c-3 -24 -11 -59 -18 -78 -6 -19 -10 -47 -8 -62 1 -14 -3 -29 -9 -33 -7 -5 -9 2 -4 22 6 26 5 26 -14 -7 -11 -19 -18 -38 -15 -42 2 -5 -1 -8 -6 -8 -6 0 -11 -7 -11 -15 0 -8 -4 -15 -10 -15 -5 0 -10 -6 -10 -14 0 -16 -76 -88 -111 -106 -17 -8 -15 -4 9 15 17 15 32 33 32 41 0 8 4 13 9 10 25 -16 123 156 141 249 15 76 18 85 26 85 3 0 3 -19 -1 -42z m-1055 -81 c-45 -45 -79 -75 -75 -67 12 21 149 157 155 153 2 -2 -34 -41 -80 -86z m-712 46 c-10 -2 -26 -2 -35 0 -10 3 -2 5 17 5 19 0 27 -2 18 -5z m-58 -7 c0 -8 -51 -13 -56 -5 -3 5 9 9 25 9 17 0 31 -2 31 -4z m230 0 c0 -9 -30 -14 -35 -6 -4 6 3 10 14 10 12 0 21 -2 21 -4z m80 -21 c0 -2 -12 -2 -27 0 -16 2 -32 4 -36 4 -5 1 -6 5 -2 10 5 9 65 -5 65 -14z m-884 -53 c-11 -10 -14 3 -7 38 l6 35 3 -33 c2 -19 1 -36 -2 -40z m474 54 c-8 -7 -28 -16 -45 -19 -26 -6 -25 -4 10 13 49 23 53 24 35 6z m2037 -3 c-4 -3 -7 0 -7 7 0 7 3 10 7 7 3 -4 3 -10 0 -14z m-1587 -3 c0 -5 -7 -10 -16 -10 -8 0 -12 5 -9 10 3 6 10 10 16 10 5 0 9 -4 9 -10z m-533 -37 c-4 -3 -7 0 -7 7 0 7 3 10 7 7 3 -4 3 -10 0 -14z m624 -10 c13 -15 12 -15 -11 -3 -34 17 -36 20 -18 20 9 0 22 -7 29 -17z m1496 -15 c-3 -7 -5 -2 -5 12 0 14 2 19 5 13 2 -7 2 -19 0 -25z m-2167 10 c-8 -7 -20 -20 -28 -28 -12 -13 -13 -13 -6 0 12 25 26 40 37 40 6 0 5 -6 -3 -12z m756 -40 c54 -36 74 -53 74 -64 0 -4 -10 2 -22 13 -13 12 -45 35 -72 52 -28 17 -45 31 -40 31 6 0 33 -15 60 -32z m-1114 -63 c-2 -57 -7 -83 -14 -79 -15 10 -1 164 15 164 1 0 1 -38 -1 -85z m308 61 c0 -3 -5 -8 -12 -12 -7 -4 -8 -3 -4 4 7 12 16 16 16 8z m960 -10 c0 -2 -8 -10 -17 -17 -16 -13 -17 -12 -4 4 13 16 21 21 21 13z m-1050 -98 c-75 -98 -101 -198 -96 -367 3 -84 1 -110 -8 -101 -7 7 -10 49 -7 123 1 62 3 124 3 140 1 15 4 27 9 27 9 0 24 59 20 84 -2 11 2 16 8 12 7 -4 11 1 11 12 0 11 7 23 16 26 8 3 13 10 10 15 -4 5 -3 11 1 13 5 1 21 23 38 47 16 24 31 39 33 33 2 -6 -15 -34 -38 -64z m2317 10 c-2 -13 -4 -3 -4 22 0 25 2 35 4 23 2 -13 2 -33 0 -45z m-1307 48 c0 -2 -8 -10 -17 -17 -16 -13 -17 -12 -4 4 13 16 21 21 21 13z m151 -107 c5 -10 15 -16 22 -14 6 3 23 -4 36 -14 18 -14 21 -20 11 -26 -9 -5 -11 -4 -6 3 7 11 -6 17 -27 13 -5 -1 -5 4 -1 10 5 8 2 10 -7 7 -9 -4 -31 10 -55 34 -31 33 -33 37 -11 23 15 -10 32 -26 38 -36z m-65 29 c4 -6 3 -8 -4 -4 -6 3 -20 -6 -31 -20 -12 -15 -21 -23 -21 -18 0 7 40 54 46 54 2 0 6 -5 10 -12z m-1313 -75 c3 -24 2 -43 -3 -43 -10 0 -23 68 -14 81 9 14 10 10 17 -38z m2530 22 c4 -8 2 -17 -3 -20 -6 -4 -10 3 -10 14 0 25 6 27 13 6z m-1283 -16 c0 -5 -4 -8 -9 -4 -5 3 -21 -9 -35 -27 -14 -18 -26 -29 -26 -24 0 12 51 66 62 66 4 0 8 -5 8 -11z m280 -45 c0 -2 -13 2 -29 10 -16 9 -32 12 -36 8 -5 -4 -5 -1 -1 5 6 10 14 10 37 -2 16 -9 29 -18 29 -21z m647 20 c-3 -3 -12 -4 -19 -1 -8 3 -5 6 6 6 11 1 17 -2 13 -5z m-557 -55 c0 -5 -4 -9 -10 -9 -5 0 -10 5 -10 10 0 6 -6 10 -14 10 -8 0 -17 4 -21 10 -3 5 7 5 25 -1 16 -6 30 -15 30 -20z m-1602 -39 l0 -25 -8 25 c-4 14 -8 34 -8 45 l-1 20 9 -20 c5 -11 8 -31 8 -45z m2067 50 c-28 -12 -37 -12 -30 0 3 6 16 10 28 9 21 0 21 -1 2 -9z m427 -12 c-7 -7 -12 -8 -12 -2 0 14 12 26 19 19 2 -3 -1 -11 -7 -17z m-1365 -8 c-14 -11 -29 -29 -32 -40 -4 -11 -13 -20 -21 -20 -9 0 -1 15 22 40 21 22 42 40 47 40 5 0 -2 -9 -16 -20z m890 4 c-3 -3 -12 -4 -19 -1 -8 3 -5 6 6 6 11 1 17 -2 13 -5z m-354 -11 c-7 -2 -19 -2 -25 0 -7 3 -2 5 12 5 14 0 19 -2 13 -5z m62 -3 c3 -5 -1 -10 -10 -10 -9 0 -13 5 -10 10 3 6 8 10 10 10 2 0 7 -4 10 -10z m254 6 c-2 -2 -17 -6 -34 -10 -22 -5 -26 -4 -15 4 14 9 59 15 49 6z m508 -33 c-4 -3 -7 0 -7 7 0 7 3 10 7 7 3 -4 3 -10 0 -14z m-15 -35 c-7 -7 -12 -8 -12 -2 0 14 12 26 19 19 2 -3 -1 -11 -7 -17z m-1417 -8 c4 -6 1 -9 -6 -8 -7 2 -18 -7 -24 -19 -9 -22 -25 -31 -25 -16 0 6 41 53 46 53 2 0 6 -5 9 -10z m-1041 -45 c7 -28 6 -29 -7 -10 -8 10 -12 25 -10 33 7 16 9 14 17 -23z m2453 18 c-4 -3 -10 -3 -14 0 -3 4 0 7 7 7 7 0 10 -3 7 -7z m-1480 -40 c-4 -3 -7 0 -7 7 0 7 3 10 7 7 3 -4 3 -10 0 -14z m1465 -5 c-7 -7 -12 -8 -12 -2 0 14 12 26 19 19 2 -3 -1 -11 -7 -17z m-2408 -78 c5 -17 4 -20 -2 -10 -5 8 -13 26 -16 40 -5 17 -4 20 2 10 5 -8 13 -26 16 -40z m891 30 c-3 -5 -11 -10 -16 -10 -6 0 -7 5 -4 10 3 6 11 10 16 10 6 0 7 -4 4 -10z m1486 -27 c-8 -15 -10 -15 -11 -2 0 17 10 32 18 25 2 -3 -1 -13 -7 -23z m-1539 -16 c-12 -13 -22 -29 -22 -35 0 -7 -2 -12 -4 -12 -2 0 -13 -3 -23 -6 -10 -4 -2 10 22 35 21 22 41 41 44 41 2 0 -5 -10 -17 -23z m1510 -47 c-23 -41 -33 -38 -13 4 9 18 19 32 23 30 4 -3 -1 -18 -10 -34z m-2312 -35 c0 -5 -5 -3 -10 5 -5 8 -10 20 -10 25 0 6 5 3 10 -5 5 -8 10 -19 10 -25z m40 2 c0 -7 -7 -22 -15 -33 -16 -20 -16 -18 0 31 5 18 15 20 15 2z m691 -10 c-13 -13 -26 -3 -16 12 3 6 11 8 17 5 6 -4 6 -10 -1 -17z m1532 -37 c-15 -22 -32 -40 -36 -40 -4 0 7 18 24 40 42 51 48 52 12 0z m-1573 5 c-7 -9 -15 -13 -18 -10 -3 2 1 11 8 20 7 9 15 13 18 10 3 -2 -1 -11 -8 -20z m-584 -147 c12 -22 12 -27 2 -23 -13 5 -42 62 -39 78 0 4 -3 7 -9 7 -5 0 -6 7 -3 17 4 10 2 14 -4 10 -7 -5 -9 1 -5 15 3 14 1 19 -6 14 -6 -3 -13 -2 -17 4 -3 5 -1 10 4 10 6 0 11 8 12 18 0 9 11 -14 25 -53 14 -38 32 -82 40 -97z m554 119 c0 -8 -6 -14 -14 -14 -8 0 -12 6 -9 14 3 7 9 13 14 13 5 0 9 -6 9 -13z m1548 -57 c-12 -16 -23 -30 -25 -30 -7 0 20 45 31 52 18 13 18 9 -6 -22z m-1518 -66 c0 -10 -13 -1 -57 42 l-48 47 53 -43 c28 -23 52 -44 52 -46z m1470 13 c0 -2 -15 -16 -32 -33 l-33 -29 29 33 c28 30 36 37 36 29z m-1426 -56 c-2 -3 -12 3 -22 13 -16 17 -16 18 5 5 12 -7 20 -15 17 -18z m1308 -61 c-57 -52 -102 -76 -102 -53 0 4 6 8 13 8 14 0 54 27 98 68 54 48 46 29 -9 -23z m-1247 20 c3 -6 -1 -7 -9 -4 -18 7 -21 14 -7 14 6 0 13 -4 16 -10z m75 -46 c0 -2 -13 2 -30 11 -16 9 -30 18 -30 21 0 2 14 -2 30 -11 17 -9 30 -18 30 -21z m65 -34 c3 -5 1 -10 -4 -10 -6 0 -11 5 -11 10 0 6 2 10 4 10 3 0 8 -4 11 -10z m30 -20 c3 -5 4 -10 1 -10 -3 0 -8 5 -11 10 -3 6 -4 10 -1 10 3 0 8 -4 11 -10z m965 5 c0 -2 -13 -11 -30 -20 -16 -9 -30 -12 -30 -7 0 4 12 13 28 19 15 6 28 11 30 12 1 1 2 -1 2 -4z m-935 -15 c3 -5 1 -10 -4 -10 -6 0 -11 5 -11 10 0 6 2 10 4 10 3 0 8 -4 11 -10z m45 -20 c8 -5 11 -10 5 -10 -5 0 -17 5 -25 10 -8 5 -10 10 -5 10 6 0 17 -5 25 -10z m70 -24 c-7 -7 -13 -7 -20 0 -6 6 -3 10 10 10 13 0 16 -4 10 -10z m695 4 c3 -5 1 -10 -4 -10 -6 0 -11 5 -11 10 0 6 2 10 4 10 3 0 8 -4 11 -10z m32 3 c-4 -3 -10 -3 -14 0 -3 4 0 7 7 7 7 0 10 -3 7 -7z m-691 -12 c-4 -5 24 -14 61 -20 116 -18 120 -19 52 -16 -37 1 -70 4 -75 7 -5 3 -22 8 -37 12 -25 6 -30 26 -6 26 6 0 8 -4 5 -9z m609 -11 c-3 -5 -14 -10 -23 -9 -14 0 -13 2 3 9 27 11 27 11 20 0z m-48 -6 c-3 -3 -12 -4 -19 -1 -8 3 -5 6 6 6 11 1 17 -2 13 -5z m-72 -32 c-3 -3 -11 0 -18 7 -9 10 -8 11 6 5 10 -3 15 -9 12 -12z m50 8 c-3 -5 -12 -7 -20 -3 -21 7 -19 13 6 13 11 0 18 -4 14 -10z m-98 -7 c-4 -3 -10 -3 -14 0 -3 4 0 7 7 7 7 0 10 -3 7 -7z m-52 -13 c-3 -5 -17 -10 -30 -10 -13 0 -27 5 -30 10 -4 6 8 10 30 10 22 0 34 -4 30 -10z"/>
 </g>
<g id="layer105" fill="#044093" stroke="none">
 <path d="M0 1460 l0 -1460 1595 0 1595 0 0 1460 0 1460 -1595 0 -1595 0 0 -1460z m1444 1041 c38 -6 75 -16 82 -22 6 -5 29 -12 49 -14 20 -3 49 -11 64 -19 14 -7 43 -21 65 -30 57 -25 36 -32 -26 -8 -93 36 -225 73 -290 83 -140 20 -396 1 -432 -32 -6 -5 -20 -9 -32 -9 -13 0 -26 -4 -29 -10 -3 -5 -15 -10 -26 -10 -11 0 -22 -7 -25 -15 -4 -9 -19 -15 -36 -15 -17 0 -27 -4 -23 -10 4 -6 -1 -7 -11 -3 -11 4 -15 2 -11 -4 3 -5 -11 -20 -33 -32 -22 -12 -61 -42 -87 -66 -26 -25 -51 -45 -55 -45 -4 0 -10 -9 -13 -20 -6 -17 -35 -30 -35 -15 0 3 34 39 76 80 58 57 96 83 162 115 48 23 103 49 122 59 19 10 58 23 85 29 28 7 68 16 90 21 52 11 281 7 369 -8z m385 -146 c34 -20 61 -40 61 -45 0 -5 10 -12 23 -16 25 -7 57 -33 57 -45 0 -12 -40 12 -174 104 -16 11 -25 14 -21 7 5 -8 3 -11 -5 -8 -15 5 -23 38 -10 38 5 0 36 -16 69 -35z m771 -143 c0 -6 4 -12 9 -14 13 -5 86 -138 106 -194 9 -27 24 -63 31 -81 14 -30 18 -49 47 -183 12 -56 15 -336 5 -400 -3 -19 -11 -36 -18 -38 -8 -3 -10 2 -6 16 13 41 26 139 26 199 0 84 -27 274 -45 317 -8 20 -15 46 -15 59 0 14 -6 30 -14 36 -8 6 -19 32 -25 56 -6 25 -13 45 -16 45 -5 0 2 -104 10 -155 12 -74 -29 -281 -61 -311 -12 -12 -29 -34 -37 -50 -23 -44 -129 -137 -199 -174 -48 -25 -174 -60 -213 -59 -29 1 -29 1 -5 9 14 4 60 15 102 24 42 10 81 23 87 30 6 7 29 21 51 31 22 10 40 22 40 27 0 5 11 13 25 18 14 5 25 17 25 25 0 9 4 14 9 11 13 -9 46 33 90 114 49 92 76 214 67 304 -3 33 -6 68 -7 76 -4 57 -58 226 -84 264 -19 27 -19 42 0 22 8 -8 15 -19 15 -24z m-544 -28 l58 -56 -60 -59 c-32 -32 -65 -58 -71 -59 -7 0 -13 -6 -13 -13 0 -16 -52 -67 -68 -67 -7 0 -12 -5 -12 -10 0 -16 -122 -140 -137 -140 -7 0 -13 -6 -13 -13 0 -15 -129 -141 -154 -150 -9 -4 -16 -13 -16 -22 0 -8 -6 -15 -14 -15 -7 0 -22 -12 -32 -27 -29 -45 -45 -58 -59 -47 -7 5 -28 21 -46 36 -82 64 -252 140 -349 155 -121 18 -275 -4 -371 -53 -27 -13 -54 -24 -60 -24 -7 0 -27 -18 -46 -40 -19 -22 -40 -40 -46 -40 -19 0 -95 -110 -118 -170 -31 -82 -38 -136 -35 -256 3 -89 9 -126 35 -204 17 -52 38 -107 47 -122 13 -25 13 -27 -1 -22 -8 3 -15 12 -15 20 0 8 -4 14 -9 14 -12 0 -121 218 -121 241 0 9 -7 30 -15 45 -8 16 -15 37 -15 47 0 10 -4 26 -10 36 -11 21 -16 56 -32 197 -13 125 1 278 38 418 41 151 207 434 242 412 13 -8 7 -18 -44 -69 -18 -18 -40 -48 -49 -67 -10 -18 -24 -40 -31 -48 -8 -7 -14 -19 -14 -25 0 -7 -9 -23 -20 -37 -11 -14 -20 -38 -20 -53 0 -19 -4 -26 -12 -21 -7 4 -8 3 -4 -4 4 -6 1 -24 -7 -39 -13 -25 -28 -82 -57 -215 -30 -136 5 -421 73 -591 34 -86 47 -87 27 -1 -17 69 -8 245 14 298 9 21 16 45 16 52 0 12 30 65 65 113 13 18 73 78 116 117 48 42 165 92 251 105 130 20 327 -3 413 -50 22 -11 48 -21 57 -21 10 0 18 -4 18 -9 0 -5 19 -20 43 -34 23 -14 53 -35 66 -46 13 -12 28 -21 33 -21 18 0 607 600 602 613 -2 7 -18 21 -34 31 -17 9 -30 22 -30 27 0 6 -4 8 -9 5 -5 -3 -11 3 -14 14 -8 32 9 24 69 -36z m-412 -729 c45 -37 181 -115 200 -115 6 0 24 -7 40 -15 15 -8 32 -13 36 -10 5 3 11 1 15 -5 3 -5 23 -10 43 -11 20 -1 48 -5 62 -9 25 -8 25 -8 -4 -9 -58 -2 -160 22 -220 52 -34 17 -67 30 -73 30 -7 0 -13 4 -13 9 0 4 -3 7 -7 6 -12 -3 -54 22 -91 54 -31 26 -35 27 -60 14 -15 -8 -34 -26 -42 -40 -7 -14 -19 -26 -26 -26 -7 0 -15 -9 -19 -20 -3 -10 -22 -29 -41 -41 -19 -12 -43 -33 -52 -47 -21 -33 -52 -65 -52 -54 -1 4 -8 -5 -16 -20 -8 -16 -19 -28 -24 -28 -12 0 -90 -79 -90 -91 0 -5 -7 -9 -15 -9 -8 0 -15 -4 -15 -8 0 -12 -86 -102 -97 -102 -4 0 -19 -16 -33 -34 -14 -19 -28 -32 -31 -30 -3 2 -12 -9 -18 -23 -11 -23 -10 -29 4 -39 10 -7 34 -28 54 -47 20 -18 50 -42 66 -53 17 -10 39 -27 49 -36 11 -10 24 -18 30 -18 5 0 17 -6 25 -14 9 -8 41 -26 71 -40 30 -15 72 -36 92 -47 20 -10 47 -19 60 -19 36 0 68 -11 62 -21 -3 -5 -4 -9 -2 -9 39 0 174 -24 179 -32 12 -19 219 -12 301 10 40 11 80 19 88 19 34 -1 210 77 223 100 5 7 13 11 18 8 13 -8 57 26 139 108 38 37 73 67 79 67 6 0 11 5 11 11 0 9 73 122 90 139 18 18 90 187 105 245 21 79 41 114 31 50 -14 -81 -61 -203 -108 -280 -86 -141 -155 -223 -240 -286 -32 -23 -58 -46 -58 -51 0 -4 -7 -8 -15 -8 -8 0 -15 -3 -15 -8 0 -18 -176 -99 -265 -121 -143 -36 -367 -34 -506 4 -30 9 -64 18 -77 20 -68 16 -240 99 -327 159 -69 48 -88 64 -158 128 l-51 48 120 121 c65 67 127 129 137 138 10 9 98 96 195 193 97 98 181 178 185 178 5 0 28 -16 51 -35z"/>
 </g>
<g id="layer106" fill="#4e553f" stroke="none">
 <path d="M0 1460 l0 -1460 1595 0 1595 0 0 1460 0 1460 -1595 0 -1595 0 0 -1460z m1444 1041 c38 -6 75 -16 82 -22 6 -5 29 -12 50 -15 21 -2 47 -10 59 -18 11 -7 33 -16 48 -20 16 -4 40 -19 54 -34 15 -15 23 -21 19 -14 -4 6 -3 12 3 12 16 0 131 -70 131 -80 0 -5 11 -12 25 -16 14 -3 34 -17 44 -30 10 -13 24 -24 29 -24 6 0 37 -25 68 -56 l58 -56 -60 -59 c-32 -32 -65 -58 -71 -59 -7 0 -13 -6 -13 -13 0 -16 -52 -67 -68 -67 -7 0 -12 -5 -12 -10 0 -16 -122 -140 -137 -140 -7 0 -13 -6 -13 -13 0 -15 -129 -141 -154 -150 -9 -4 -16 -13 -16 -22 0 -8 -6 -15 -14 -15 -7 0 -22 -12 -32 -27 -29 -45 -45 -58 -59 -47 -7 5 -28 21 -46 36 -82 64 -252 140 -349 155 -121 18 -275 -4 -371 -53 -27 -13 -54 -24 -60 -24 -7 0 -27 -18 -46 -40 -19 -22 -40 -40 -46 -40 -19 0 -95 -110 -118 -170 -31 -82 -38 -136 -35 -256 3 -89 9 -126 35 -204 17 -52 38 -107 47 -122 13 -25 13 -27 -1 -22 -8 3 -15 12 -15 20 0 8 -4 14 -9 14 -12 0 -121 218 -121 241 0 9 -7 30 -15 45 -8 16 -15 37 -15 47 0 10 -4 26 -10 36 -11 21 -16 56 -32 197 -13 124 0 276 38 418 36 138 205 426 241 412 8 -3 11 -1 8 4 -3 5 28 43 70 84 59 58 96 84 163 116 48 23 103 49 122 59 19 10 58 23 85 29 28 7 68 16 90 21 52 11 281 7 369 -8z m1156 -289 c0 -6 4 -12 9 -14 13 -5 86 -138 106 -194 9 -27 24 -63 31 -81 14 -30 18 -49 47 -183 18 -85 14 -402 -5 -435 -3 -6 -8 -28 -12 -50 -16 -89 -54 -184 -121 -304 -59 -104 -195 -257 -221 -247 -8 3 -13 2 -10 -3 8 -12 -65 -73 -80 -67 -7 3 -11 0 -8 -7 8 -21 -156 -100 -261 -126 -126 -32 -341 -34 -473 -5 -65 14 -92 26 -86 37 5 9 4 9 -6 0 -10 -9 -27 -7 -75 12 -87 32 -127 54 -120 65 3 6 -1 7 -9 4 -18 -7 -41 4 -139 69 -43 29 -75 57 -73 64 3 7 -1 10 -7 7 -7 -2 -40 21 -72 51 l-60 56 55 53 c30 29 93 92 139 140 46 47 88 86 93 86 5 0 13 -10 18 -22 5 -14 9 -17 9 -8 1 9 -5 22 -11 28 -10 10 4 29 69 93 45 45 87 78 92 74 6 -3 9 0 6 7 -5 12 153 178 170 178 3 0 26 -16 49 -35 41 -33 180 -115 197 -115 4 0 20 -5 36 -12 15 -7 33 -13 38 -13 6 -1 17 -4 25 -8 67 -25 202 -27 303 -4 87 20 103 26 162 62 44 27 60 31 49 13 -4 -7 -3 -8 4 -4 6 4 9 13 6 21 -4 10 3 18 20 25 14 5 26 17 26 25 0 9 4 14 9 11 13 -9 46 33 90 114 49 92 76 214 67 304 -3 33 -6 68 -7 76 -4 57 -58 226 -84 264 -19 27 -19 42 0 22 8 -8 15 -19 15 -24z"/>
 <path d="M1440 2450 c0 -14 26 -23 41 -15 8 6 7 10 -2 16 -19 12 -39 11 -39 -1z"/>
 <path d="M893 2433 c4 -3 10 -3 14 0 3 4 0 7 -7 7 -7 0 -10 -3 -7 -7z"/>
 <path d="M880 2410 c0 -5 5 -10 10 -10 6 0 10 5 10 10 0 6 -4 10 -10 10 -5 0 -10 -4 -10 -10z"/>
 <path d="M772 2391 c-11 -7 -11 -9 0 -14 9 -3 15 1 15 9 0 8 -1 14 -1 14 -1 0 -7 -4 -14 -9z"/>
 <path d="M760 2336 l-25 -14 27 1 c14 1 24 5 22 9 -2 3 2 9 8 11 7 3 9 6 3 6 -5 0 -21 -6 -35 -13z"/>
 <path d="M1766 2332 c-3 -5 1 -9 9 -9 8 0 12 4 9 9 -3 4 -7 8 -9 8 -2 0 -6 -4 -9 -8z"/>
 <path d="M673 2273 c4 -3 10 -3 14 0 3 4 0 7 -7 7 -7 0 -10 -3 -7 -7z"/>
 <path d="M611 2214 c0 -11 3 -14 6 -6 3 7 2 16 -1 19 -3 4 -6 -2 -5 -13z"/>
 <path d="M1958 2164 c2 -14 9 -23 15 -21 18 6 18 22 -1 34 -17 10 -18 8 -14 -13z"/>
 <path d="M535 2170 c3 -5 8 -10 11 -10 3 0 2 5 -1 10 -3 6 -8 10 -11 10 -3 0 -2 -4 1 -10z"/>
 <path d="M473 2075 c-3 -9 -3 -19 1 -22 3 -4 6 1 6 10 0 8 6 18 13 20 9 4 9 6 -1 6 -7 1 -15 -6 -19 -14z"/>
 <path d="M1984 2078 c-4 -7 -3 -8 4 -4 12 7 16 16 8 16 -3 0 -8 -5 -12 -12z"/>
 <path d="M1913 2035 c-17 -18 -12 -51 7 -51 10 0 17 10 18 27 3 32 -8 42 -25 24z"/>
 <path d="M430 2020 c0 -7 3 -10 7 -7 3 4 3 10 0 14 -4 3 -7 0 -7 -7z"/>
 <path d="M1904 1958 c-4 -7 -3 -8 4 -4 7 4 12 9 12 12 0 8 -9 4 -16 -8z"/>
 <path d="M1801 1910 c-9 -5 -7 -9 8 -13 12 -3 23 -2 26 3 7 11 -19 20 -34 10z"/>
 <path d="M366 1854 c-9 -23 -8 -24 12 -23 9 0 12 3 5 5 -7 3 -9 12 -6 20 3 8 3 14 0 14 -3 0 -8 -7 -11 -16z"/>
 <path d="M1745 1850 c-8 -13 5 -13 25 0 13 8 13 10 -2 10 -9 0 -20 -4 -23 -10z"/>
 <path d="M1325 1750 c3 -5 13 -10 21 -10 8 0 12 5 9 10 -3 6 -13 10 -21 10 -8 0 -12 -4 -9 -10z"/>
 <path d="M1641 1746 c-10 -12 -8 -13 8 -9 12 3 18 9 15 14 -7 12 -10 11 -23 -5z"/>
 <path d="M779 1739 c-8 -5 -8 -8 0 -13 6 -4 11 -3 11 2 0 5 14 7 30 4 17 -2 30 -2 30 1 0 8 -59 14 -71 6z"/>
 <path d="M1600 1700 c0 -7 3 -10 7 -7 3 4 3 10 0 14 -4 3 -7 0 -7 -7z"/>
 <path d="M1283 1673 c4 -3 10 -3 14 0 3 4 0 7 -7 7 -7 0 -10 -3 -7 -7z"/>
 <path d="M583 1663 c4 -3 10 -3 14 0 3 4 0 7 -7 7 -7 0 -10 -3 -7 -7z"/>
 <path d="M1515 1590 c-3 -6 1 -7 9 -4 18 7 21 14 7 14 -6 0 -13 -4 -16 -10z"/>
 <path d="M1415 1570 c3 -5 8 -10 11 -10 3 0 2 5 -1 10 -3 6 -8 10 -11 10 -3 0 -2 -4 1 -10z"/>
 <path d="M313 1442 c-5 -4 -13 -24 -17 -46 -9 -50 11 -45 29 7 13 37 8 52 -12 39z"/>
 <path d="M363 1346 c-13 -6 -23 -18 -23 -27 0 -30 13 -29 32 2 22 36 21 39 -9 25z"/>
 <path d="M356 1017 c3 -10 9 -15 12 -12 3 3 0 11 -7 18 -10 9 -11 8 -5 -6z"/>
 <path d="M2740 1786 c0 -8 5 -18 10 -21 6 -3 10 1 10 9 0 8 -4 18 -10 21 -5 3 -10 -1 -10 -9z"/>
 <path d="M2692 1605 c1 -16 9 -30 16 -33 18 -6 15 33 -4 49 -14 11 -15 9 -12 -16z"/>
 <path d="M2622 1538 c-18 -18 -14 -30 7 -19 10 6 21 7 25 3 4 -3 4 1 0 11 -7 20 -16 21 -32 5z"/>
 <path d="M2576 1462 c-3 -6 -1 -14 5 -17 15 -10 25 3 12 16 -7 7 -13 7 -17 1z"/>
 <path d="M2640 1450 c0 -7 3 -10 7 -7 3 4 3 10 0 14 -4 3 -7 0 -7 -7z"/>
 <path d="M2485 1370 c-3 -6 1 -7 9 -4 18 7 21 14 7 14 -6 0 -13 -4 -16 -10z"/>
 <path d="M1500 1347 c0 -8 7 -14 15 -14 8 0 16 6 19 14 3 8 -2 13 -14 13 -11 0 -20 -6 -20 -13z"/>
 <path d="M1740 1330 c0 -5 9 -10 21 -10 13 0 18 -4 13 -12 -5 -7 -3 -8 6 -3 10 6 9 11 -5 22 -22 16 -35 17 -35 3z"/>
 <path d="M2400 1320 c0 -5 5 -10 10 -10 6 0 10 5 10 10 0 6 -4 10 -10 10 -5 0 -10 -4 -10 -10z"/>
 <path d="M2348 1313 c7 -3 16 -2 19 1 4 3 -2 6 -13 5 -11 0 -14 -3 -6 -6z"/>
 <path d="M1610 1290 c0 -7 3 -10 7 -7 3 4 3 10 0 14 -4 3 -7 0 -7 -7z"/>
 <path d="M1423 1273 c4 -3 10 -3 14 0 3 4 0 7 -7 7 -7 0 -10 -3 -7 -7z"/>
 <path d="M1353 1193 c4 -3 10 -3 14 0 3 4 0 7 -7 7 -7 0 -10 -3 -7 -7z"/>
 <path d="M1190 1033 c0 -7 7 -13 15 -13 8 0 15 6 15 13 0 8 -7 14 -15 14 -8 0 -15 -6 -15 -14z"/>
 <path d="M2591 934 c0 -11 3 -14 6 -6 3 7 2 16 -1 19 -3 4 -6 -2 -5 -13z"/>
 <path d="M1019 886 c10 -12 9 -15 -6 -18 -17 -4 -16 -5 3 -15 16 -10 22 -8 31 6 10 16 7 20 -14 30 -23 11 -25 10 -14 -3z"/>
 <path d="M995 840 c3 -5 8 -10 11 -10 3 0 2 5 -1 10 -3 6 -8 10 -11 10 -3 0 -2 -4 1 -10z"/>
 <path d="M1073 785 c0 -7 6 -11 14 -8 7 3 13 6 13 8 0 2 -6 5 -13 8 -8 3 -14 -1 -14 -8z"/>
 <path d="M1120 755 c-10 -12 -10 -15 3 -15 19 0 31 16 18 24 -5 3 -14 -1 -21 -9z"/>
 <path d="M2474 758 c-4 -7 -3 -8 4 -4 12 7 16 16 8 16 -3 0 -8 -5 -12 -12z"/>
 <path d="M1200 719 c0 -5 -6 -7 -12 -3 -10 5 -10 4 -2 -5 11 -12 44 -5 44 10 0 5 -7 9 -15 9 -8 0 -15 -5 -15 -11z"/>
 <path d="M2396 712 c-2 -4 -1 -14 4 -22 7 -11 9 -9 7 8 -1 24 -3 26 -11 14z"/>
 <path d="M1215 690 c-3 -6 1 -7 9 -4 18 7 21 14 7 14 -6 0 -13 -4 -16 -10z"/>
 <path d="M2243 693 c4 -3 10 -3 14 0 3 4 0 7 -7 7 -7 0 -10 -3 -7 -7z"/>
 <path d="M2275 630 c-3 -6 1 -7 9 -4 18 7 21 14 7 14 -6 0 -13 -4 -16 -10z"/>
 <path d="M1373 613 c4 -3 10 -3 14 0 3 4 0 7 -7 7 -7 0 -10 -3 -7 -7z"/>
 <path d="M1593 543 c4 -3 10 -3 14 0 3 4 0 7 -7 7 -7 0 -10 -3 -7 -7z"/>
 <path d="M1993 543 c4 -3 10 -3 14 0 3 4 0 7 -7 7 -7 0 -10 -3 -7 -7z"/>
 <path d="M1633 533 c4 -3 10 -3 14 0 3 4 0 7 -7 7 -7 0 -10 -3 -7 -7z"/>
 </g>
<g id="layer107" fill="#053ea3" stroke="none">
 <path d="M0 1460 l0 -1460 1595 0 1595 0 0 1460 0 1460 -1595 0 -1595 0 0 -1460z m1444 1041 c38 -6 75 -16 82 -22 6 -5 29 -12 50 -15 21 -2 47 -10 59 -18 11 -7 33 -16 48 -20 16 -4 40 -19 54 -34 15 -15 23 -21 19 -14 -4 6 -3 12 3 12 16 0 131 -70 131 -80 0 -5 11 -12 25 -16 14 -3 34 -17 44 -30 10 -13 24 -24 29 -24 6 0 37 -25 68 -56 l58 -56 -60 -59 c-32 -32 -65 -58 -71 -59 -7 0 -13 -6 -13 -13 0 -16 -52 -67 -68 -67 -7 0 -12 -5 -12 -10 0 -16 -122 -140 -137 -140 -7 0 -13 -6 -13 -13 0 -15 -129 -141 -154 -150 -9 -4 -16 -13 -16 -22 0 -8 -6 -15 -14 -15 -7 0 -22 -12 -32 -27 -29 -45 -45 -58 -59 -47 -7 5 -28 21 -46 36 -82 64 -252 140 -349 155 -121 18 -275 -4 -371 -53 -27 -13 -53 -24 -58 -24 -21 0 -153 -147 -180 -200 -38 -74 -49 -112 -60 -200 -13 -99 1 -207 39 -322 28 -82 44 -116 109 -218 l15 -25 -21 19 c-55 47 -213 321 -213 369 0 8 -7 28 -15 43 -8 16 -15 37 -15 47 0 10 -4 26 -10 36 -11 21 -16 56 -32 197 -13 124 0 276 38 418 36 138 205 426 241 412 8 -3 11 -1 8 4 -3 5 28 43 70 84 59 58 96 84 163 116 48 23 103 49 122 59 19 10 58 23 85 29 28 7 68 16 90 21 52 11 281 7 369 -8z m1131 -246 c56 -80 118 -190 140 -251 9 -27 24 -63 31 -81 14 -30 18 -49 47 -183 18 -85 14 -402 -5 -435 -3 -6 -8 -28 -12 -50 -16 -89 -54 -184 -121 -304 -59 -104 -195 -257 -221 -247 -8 3 -13 2 -10 -3 8 -12 -65 -73 -80 -67 -7 3 -11 0 -8 -7 8 -21 -156 -100 -261 -126 -126 -32 -341 -34 -473 -5 -65 14 -92 26 -86 37 5 9 4 9 -6 0 -10 -9 -27 -7 -75 12 -87 32 -127 54 -120 65 3 6 -1 7 -9 4 -18 -7 -41 4 -139 69 -43 29 -75 57 -73 64 3 7 -1 10 -7 7 -7 -2 -40 21 -72 51 l-60 56 55 53 c30 29 93 92 139 140 46 47 88 86 93 86 5 0 13 -10 18 -22 5 -14 9 -17 9 -8 1 9 -5 22 -11 28 -10 10 4 29 69 93 45 45 87 78 92 74 6 -3 9 0 6 7 -5 12 153 178 170 178 3 0 26 -16 49 -35 41 -33 180 -115 197 -115 4 0 20 -5 36 -12 15 -7 33 -13 38 -13 6 -1 17 -4 25 -8 67 -25 202 -27 303 -4 87 20 103 26 162 62 44 27 60 31 49 13 -4 -7 -3 -8 4 -4 6 4 9 13 6 21 -4 10 3 18 20 25 14 5 26 14 26 20 0 6 16 27 35 47 43 44 89 136 110 218 26 103 14 285 -26 390 -31 80 -74 165 -106 210 -24 33 -28 43 -13 30 12 -11 42 -47 65 -80z"/>
 <path d="M1440 2450 c0 -14 26 -23 41 -15 8 6 7 10 -2 16 -19 12 -39 11 -39 -1z"/>
 <path d="M893 2433 c4 -3 10 -3 14 0 3 4 0 7 -7 7 -7 0 -10 -3 -7 -7z"/>
 <path d="M880 2410 c0 -5 5 -10 10 -10 6 0 10 5 10 10 0 6 -4 10 -10 10 -5 0 -10 -4 -10 -10z"/>
 <path d="M772 2391 c-11 -7 -11 -9 0 -14 9 -3 15 1 15 9 0 8 -1 14 -1 14 -1 0 -7 -4 -14 -9z"/>
 <path d="M760 2336 l-25 -14 27 1 c14 1 24 5 22 9 -2 3 2 9 8 11 7 3 9 6 3 6 -5 0 -21 -6 -35 -13z"/>
 <path d="M1766 2332 c-3 -5 1 -9 9 -9 8 0 12 4 9 9 -3 4 -7 8 -9 8 -2 0 -6 -4 -9 -8z"/>
 <path d="M673 2273 c4 -3 10 -3 14 0 3 4 0 7 -7 7 -7 0 -10 -3 -7 -7z"/>
 <path d="M611 2214 c0 -11 3 -14 6 -6 3 7 2 16 -1 19 -3 4 -6 -2 -5 -13z"/>
 <path d="M1958 2164 c2 -14 9 -23 15 -21 18 6 18 22 -1 34 -17 10 -18 8 -14 -13z"/>
 <path d="M535 2170 c3 -5 8 -10 11 -10 3 0 2 5 -1 10 -3 6 -8 10 -11 10 -3 0 -2 -4 1 -10z"/>
 <path d="M473 2075 c-3 -9 -3 -19 1 -22 3 -4 6 1 6 10 0 8 6 18 13 20 9 4 9 6 -1 6 -7 1 -15 -6 -19 -14z"/>
 <path d="M1984 2078 c-4 -7 -3 -8 4 -4 12 7 16 16 8 16 -3 0 -8 -5 -12 -12z"/>
 <path d="M1913 2035 c-17 -18 -12 -51 7 -51 10 0 17 10 18 27 3 32 -8 42 -25 24z"/>
 <path d="M430 2020 c0 -7 3 -10 7 -7 3 4 3 10 0 14 -4 3 -7 0 -7 -7z"/>
 <path d="M1904 1958 c-4 -7 -3 -8 4 -4 7 4 12 9 12 12 0 8 -9 4 -16 -8z"/>
 <path d="M1801 1910 c-9 -5 -7 -9 8 -13 12 -3 23 -2 26 3 7 11 -19 20 -34 10z"/>
 <path d="M366 1854 c-9 -23 -8 -24 12 -23 9 0 12 3 5 5 -7 3 -9 12 -6 20 3 8 3 14 0 14 -3 0 -8 -7 -11 -16z"/>
 <path d="M1745 1850 c-8 -13 5 -13 25 0 13 8 13 10 -2 10 -9 0 -20 -4 -23 -10z"/>
 <path d="M1325 1750 c3 -5 13 -10 21 -10 8 0 12 5 9 10 -3 6 -13 10 -21 10 -8 0 -12 -4 -9 -10z"/>
 <path d="M1641 1746 c-10 -12 -8 -13 8 -9 12 3 18 9 15 14 -7 12 -10 11 -23 -5z"/>
 <path d="M779 1739 c-8 -5 -8 -8 0 -13 6 -4 11 -3 11 2 0 5 14 7 30 4 17 -2 30 -2 30 1 0 8 -59 14 -71 6z"/>
 <path d="M1600 1700 c0 -7 3 -10 7 -7 3 4 3 10 0 14 -4 3 -7 0 -7 -7z"/>
 <path d="M1283 1673 c4 -3 10 -3 14 0 3 4 0 7 -7 7 -7 0 -10 -3 -7 -7z"/>
 <path d="M583 1663 c4 -3 10 -3 14 0 3 4 0 7 -7 7 -7 0 -10 -3 -7 -7z"/>
 <path d="M1515 1590 c-3 -6 1 -7 9 -4 18 7 21 14 7 14 -6 0 -13 -4 -16 -10z"/>
 <path d="M1415 1570 c3 -5 8 -10 11 -10 3 0 2 5 -1 10 -3 6 -8 10 -11 10 -3 0 -2 -4 1 -10z"/>
 <path d="M313 1442 c-5 -4 -13 -24 -17 -46 -9 -50 11 -45 29 7 13 37 8 52 -12 39z"/>
 <path d="M363 1346 c-13 -6 -23 -18 -23 -27 0 -30 13 -29 32 2 22 36 21 39 -9 25z"/>
 <path d="M356 1017 c3 -10 9 -15 12 -12 3 3 0 11 -7 18 -10 9 -11 8 -5 -6z"/>
 <path d="M2740 1786 c0 -8 5 -18 10 -21 6 -3 10 1 10 9 0 8 -4 18 -10 21 -5 3 -10 -1 -10 -9z"/>
 <path d="M2692 1605 c1 -16 9 -30 16 -33 18 -6 15 33 -4 49 -14 11 -15 9 -12 -16z"/>
 <path d="M2622 1538 c-18 -18 -14 -30 7 -19 10 6 21 7 25 3 4 -3 4 1 0 11 -7 20 -16 21 -32 5z"/>
 <path d="M2576 1462 c-3 -6 -1 -14 5 -17 15 -10 25 3 12 16 -7 7 -13 7 -17 1z"/>
 <path d="M2640 1450 c0 -7 3 -10 7 -7 3 4 3 10 0 14 -4 3 -7 0 -7 -7z"/>
 <path d="M2485 1370 c-3 -6 1 -7 9 -4 18 7 21 14 7 14 -6 0 -13 -4 -16 -10z"/>
 <path d="M1500 1347 c0 -8 7 -14 15 -14 8 0 16 6 19 14 3 8 -2 13 -14 13 -11 0 -20 -6 -20 -13z"/>
 <path d="M1740 1330 c0 -5 9 -10 21 -10 13 0 18 -4 13 -12 -5 -7 -3 -8 6 -3 10 6 9 11 -5 22 -22 16 -35 17 -35 3z"/>
 <path d="M2400 1320 c0 -5 5 -10 10 -10 6 0 10 5 10 10 0 6 -4 10 -10 10 -5 0 -10 -4 -10 -10z"/>
 <path d="M2348 1313 c7 -3 16 -2 19 1 4 3 -2 6 -13 5 -11 0 -14 -3 -6 -6z"/>
 <path d="M1610 1290 c0 -7 3 -10 7 -7 3 4 3 10 0 14 -4 3 -7 0 -7 -7z"/>
 <path d="M1423 1273 c4 -3 10 -3 14 0 3 4 0 7 -7 7 -7 0 -10 -3 -7 -7z"/>
 <path d="M1353 1193 c4 -3 10 -3 14 0 3 4 0 7 -7 7 -7 0 -10 -3 -7 -7z"/>
 <path d="M1190 1033 c0 -7 7 -13 15 -13 8 0 15 6 15 13 0 8 -7 14 -15 14 -8 0 -15 -6 -15 -14z"/>
 <path d="M2591 934 c0 -11 3 -14 6 -6 3 7 2 16 -1 19 -3 4 -6 -2 -5 -13z"/>
 <path d="M1019 886 c10 -12 9 -15 -6 -18 -17 -4 -16 -5 3 -15 16 -10 22 -8 31 6 10 16 7 20 -14 30 -23 11 -25 10 -14 -3z"/>
 <path d="M995 840 c3 -5 8 -10 11 -10 3 0 2 5 -1 10 -3 6 -8 10 -11 10 -3 0 -2 -4 1 -10z"/>
 <path d="M1073 785 c0 -7 6 -11 14 -8 7 3 13 6 13 8 0 2 -6 5 -13 8 -8 3 -14 -1 -14 -8z"/>
 <path d="M1120 755 c-10 -12 -10 -15 3 -15 19 0 31 16 18 24 -5 3 -14 -1 -21 -9z"/>
 <path d="M2474 758 c-4 -7 -3 -8 4 -4 12 7 16 16 8 16 -3 0 -8 -5 -12 -12z"/>
 <path d="M1200 719 c0 -5 -6 -7 -12 -3 -10 5 -10 4 -2 -5 11 -12 44 -5 44 10 0 5 -7 9 -15 9 -8 0 -15 -5 -15 -11z"/>
 <path d="M2396 712 c-2 -4 -1 -14 4 -22 7 -11 9 -9 7 8 -1 24 -3 26 -11 14z"/>
 <path d="M1215 690 c-3 -6 1 -7 9 -4 18 7 21 14 7 14 -6 0 -13 -4 -16 -10z"/>
 <path d="M2243 693 c4 -3 10 -3 14 0 3 4 0 7 -7 7 -7 0 -10 -3 -7 -7z"/>
 <path d="M2275 630 c-3 -6 1 -7 9 -4 18 7 21 14 7 14 -6 0 -13 -4 -16 -10z"/>
 <path d="M1373 613 c4 -3 10 -3 14 0 3 4 0 7 -7 7 -7 0 -10 -3 -7 -7z"/>
 <path d="M1593 543 c4 -3 10 -3 14 0 3 4 0 7 -7 7 -7 0 -10 -3 -7 -7z"/>
 <path d="M1993 543 c4 -3 10 -3 14 0 3 4 0 7 -7 7 -7 0 -10 -3 -7 -7z"/>
 <path d="M1633 533 c4 -3 10 -3 14 0 3 4 0 7 -7 7 -7 0 -10 -3 -7 -7z"/>
 </g>
<g id="layer108" fill="#265391" stroke="none">
 <path d="M0 1460 l0 -1460 1595 0 1595 0 0 1460 0 1460 -1595 0 -1595 0 0 -1460z m1444 1041 c38 -6 75 -16 82 -22 6 -5 29 -12 50 -15 21 -2 47 -10 59 -18 11 -7 33 -16 48 -20 16 -4 40 -19 54 -34 15 -15 23 -21 19 -14 -4 6 -3 12 3 12 16 0 131 -70 131 -80 0 -5 11 -12 25 -16 14 -3 34 -17 44 -30 10 -13 24 -24 29 -24 6 0 37 -25 68 -56 l58 -56 -60 -59 c-32 -32 -65 -58 -71 -59 -7 0 -13 -6 -13 -13 0 -16 -52 -67 -68 -67 -7 0 -12 -5 -12 -10 0 -16 -122 -140 -137 -140 -7 0 -13 -6 -13 -13 0 -15 -129 -141 -154 -150 -9 -4 -16 -13 -16 -22 0 -8 -6 -15 -14 -15 -7 0 -22 -12 -32 -27 -29 -45 -45 -58 -59 -47 -7 5 -28 21 -46 36 -82 64 -252 140 -349 155 -121 18 -275 -4 -371 -53 -27 -13 -53 -24 -58 -24 -21 0 -153 -147 -180 -200 -38 -74 -49 -112 -60 -200 -13 -99 1 -207 39 -322 28 -82 44 -116 109 -218 l15 -25 -21 19 c-55 47 -213 321 -213 369 0 8 -7 28 -15 43 -8 16 -15 37 -15 47 0 10 -4 26 -10 36 -11 21 -16 56 -32 197 -13 124 0 276 38 418 36 138 205 426 241 412 8 -3 11 -1 8 4 -3 5 28 43 70 84 59 58 96 84 163 116 48 23 103 49 122 59 19 10 58 23 85 29 28 7 68 16 90 21 52 11 281 7 369 -8z m1131 -246 c56 -80 118 -190 140 -251 9 -27 24 -63 31 -81 14 -30 18 -49 47 -183 18 -85 14 -402 -5 -435 -3 -6 -8 -28 -12 -50 -16 -89 -54 -184 -121 -304 -59 -104 -195 -257 -221 -247 -8 3 -13 2 -10 -3 8 -12 -65 -73 -80 -67 -7 3 -11 0 -8 -7 8 -21 -156 -100 -261 -126 -126 -32 -341 -34 -473 -5 -65 14 -92 26 -86 37 5 9 4 9 -6 0 -10 -9 -27 -7 -75 12 -87 32 -127 54 -120 65 3 6 -1 7 -9 4 -18 -7 -41 4 -139 69 -43 29 -75 57 -73 64 3 7 -1 10 -7 7 -7 -2 -40 21 -72 51 l-60 56 55 53 c30 29 93 92 139 140 47 48 90 85 97 82 7 -3 11 0 8 7 -6 16 152 171 166 162 5 -3 8 0 5 7 -5 12 153 178 170 178 3 0 26 -16 49 -35 41 -33 180 -115 197 -115 4 0 20 -5 36 -12 15 -7 33 -13 38 -13 6 -1 17 -4 25 -8 67 -25 202 -27 303 -4 87 20 103 26 162 62 44 27 60 31 49 13 -4 -7 -3 -8 4 -4 6 4 9 13 6 21 -4 10 3 18 20 25 14 5 26 14 26 20 0 6 16 27 35 47 43 44 89 136 110 218 26 103 14 285 -26 390 -31 80 -74 165 -106 210 -24 33 -28 43 -13 30 12 -11 42 -47 65 -80z"/>
 <path d="M893 2433 c4 -3 10 -3 14 0 3 4 0 7 -7 7 -7 0 -10 -3 -7 -7z"/>
 <path d="M772 2391 c-11 -7 -11 -9 0 -14 9 -3 15 1 15 9 0 8 -1 14 -1 14 -1 0 -7 -4 -14 -9z"/>
 <path d="M535 2170 c3 -5 8 -10 11 -10 3 0 2 5 -1 10 -3 6 -8 10 -11 10 -3 0 -2 -4 1 -10z"/>
 <path d="M1904 1958 c-4 -7 -3 -8 4 -4 7 4 12 9 12 12 0 8 -9 4 -16 -8z"/>
 <path d="M1415 1570 c3 -5 8 -10 11 -10 3 0 2 5 -1 10 -3 6 -8 10 -11 10 -3 0 -2 -4 1 -10z"/>
 <path d="M356 1017 c3 -10 9 -15 12 -12 3 3 0 11 -7 18 -10 9 -11 8 -5 -6z"/>
 <path d="M2343 1313 c4 -3 10 -3 14 0 3 4 0 7 -7 7 -7 0 -10 -3 -7 -7z"/>
 <path d="M995 840 c3 -5 8 -10 11 -10 3 0 2 5 -1 10 -3 6 -8 10 -11 10 -3 0 -2 -4 1 -10z"/>
 <path d="M2474 758 c-4 -7 -3 -8 4 -4 12 7 16 16 8 16 -3 0 -8 -5 -12 -12z"/>
 <path d="M2400 690 c0 -7 3 -10 7 -7 3 4 3 10 0 14 -4 3 -7 0 -7 -7z"/>
 </g>
<g id="layer109" fill="#dcb223" stroke="none">
 <path d="M0 1460 l0 -1460 1595 0 1595 0 0 1460 0 1460 -1595 0 -1595 0 0 -1460z m1425 1044 c222 -38 457 -156 627 -315 l63 -58 -319 -317 c-230 -229 -322 -315 -331 -308 -7 5 -28 21 -46 36 -56 44 -154 95 -236 123 -103 36 -266 45 -367 21 -182 -43 -339 -185 -395 -356 -38 -120 -31 -281 19 -432 28 -82 44 -116 109 -218 l15 -25 -21 19 c-36 30 -130 177 -172 267 -87 186 -114 310 -115 524 0 143 3 172 28 270 53 209 144 367 300 520 142 140 278 213 465 250 92 18 269 18 376 -1z m1150 -249 c106 -150 178 -315 215 -495 19 -91 21 -127 17 -270 -4 -139 -9 -180 -32 -260 -90 -319 -307 -576 -585 -690 -121 -50 -209 -65 -370 -64 -122 0 -161 5 -246 27 -164 42 -303 105 -429 195 -74 52 -185 149 -185 161 0 9 616 625 630 629 5 2 33 -15 62 -38 109 -87 271 -149 414 -158 283 -17 522 149 589 413 26 103 14 285 -26 390 -31 80 -74 165 -106 210 -24 33 -28 43 -13 30 12 -11 42 -47 65 -80z"/>
 </g>
<g id="layer110" fill="#bda749" stroke="none">
 <path d="M0 1460 l0 -1460 1595 0 1595 0 0 1460 0 1460 -1595 0 -1595 0 0 -1460z m1434 1305 c-4 -10 -19 -15 -43 -14 l-36 1 33 8 c18 4 36 10 39 14 10 10 13 7 7 -9z m251 1 c22 -1 46 -5 53 -10 7 -4 19 -5 27 -2 7 2 18 -1 23 -7 8 -9 -12 -10 -86 -2 -66 7 -97 14 -100 24 -4 11 1 12 19 6 13 -4 42 -9 64 -9z m-112 -3 c-13 -2 -33 -2 -45 0 -13 2 -3 4 22 4 25 0 35 -2 23 -4z m-236 -19 c-10 -10 -127 -32 -127 -24 0 4 21 12 48 18 57 12 87 14 79 6z m503 -8 c0 -3 -5 -8 -12 -12 -7 -4 -8 -3 -4 4 7 12 16 16 16 8z m30 -16 c0 -5 -2 -10 -4 -10 -3 0 -8 5 -11 10 -3 6 -1 10 4 10 6 0 11 -4 11 -10z m-735 -37 c-21 -7 -41 -11 -43 -8 -8 8 2 14 26 18 12 2 24 6 28 10 4 3 11 4 17 0 6 -4 -7 -12 -28 -20z m835 11 c0 -2 -12 -4 -27 -4 -21 0 -24 3 -14 9 13 8 41 5 41 -5z m45 -16 c14 -6 25 -15 25 -20 0 -5 -13 -2 -30 7 -45 23 -41 34 5 13z m-945 -18 c-8 -6 -22 -10 -30 -10 -8 0 -4 6 10 13 27 15 44 12 20 -3z m-53 -27 c-4 -3 -7 0 -7 7 0 7 3 10 7 7 3 -4 3 -10 0 -14z m258 0 c-11 -2 -32 -8 -47 -13 -21 -7 -26 -6 -21 6 3 9 19 14 47 13 22 -1 32 -3 21 -6z m183 -19 c-2 -1 -16 0 -33 3 -25 5 -27 7 -10 13 17 6 52 -7 43 -16z m649 9 c-4 -3 -7 0 -7 7 0 7 3 10 7 7 3 -4 3 -10 0 -14z m-577 -1 c0 -5 -13 -7 -30 -4 -16 2 -30 6 -30 8 0 2 14 4 30 4 17 0 30 -4 30 -8z m690 -53 c0 -5 -7 -6 -15 -3 -8 4 -15 10 -15 16 0 5 -4 7 -9 4 -5 -3 -14 1 -21 9 -7 8 -19 15 -26 15 -8 0 -14 5 -14 11 0 5 23 -2 50 -17 28 -15 50 -31 50 -35z m-1135 42 c-15 -14 -85 -30 -102 -24 -12 5 -14 3 -8 -8 4 -8 5 -11 0 -7 -4 4 -14 3 -22 -4 -7 -6 -16 -8 -20 -4 -3 3 -1 6 5 6 7 0 12 4 12 10 0 5 -7 7 -16 3 -12 -4 -15 -2 -12 8 3 10 18 13 54 11 27 -2 60 1 74 7 33 13 47 14 35 2z m50 -1 c-3 -5 -12 -7 -20 -3 -21 7 -19 13 6 13 11 0 18 -4 14 -10z m499 -7 c14 -4 16 -7 5 -14 -7 -4 -18 -4 -25 2 -6 5 -18 7 -26 4 -8 -3 -21 2 -29 11 -12 15 -11 16 21 10 19 -4 43 -10 54 -13z m46 -13 c0 -5 -5 -10 -11 -10 -5 0 -7 5 -4 10 3 6 8 10 11 10 2 0 4 -4 4 -10z m-782 -20 c-7 -10 -14 -17 -17 -15 -2 3 -9 1 -16 -3 -6 -4 1 3 15 15 31 28 34 28 18 3z m809 13 c-4 -3 -10 -3 -14 0 -3 4 0 7 7 7 7 0 10 -3 7 -7z m20 -20 c-4 -3 -10 -3 -14 0 -3 4 0 7 7 7 7 0 10 -3 7 -7z m83 -23 c0 -5 -13 -4 -30 1 -16 6 -30 15 -30 19 0 5 14 4 30 -1 17 -6 30 -15 30 -19z m-893 13 c-4 -3 -10 -3 -14 0 -3 4 0 7 7 7 7 0 10 -3 7 -7z m910 -30 c-4 -3 -7 0 -7 7 0 7 3 10 7 7 3 -4 3 -10 0 -14z m483 -15 c0 -5 8 -8 18 -8 10 0 26 -15 36 -32 14 -27 14 -29 1 -13 -9 11 -21 19 -26 18 -5 -2 -9 1 -9 5 0 4 -13 16 -30 25 -16 10 -30 22 -30 28 0 5 9 4 20 -3 11 -7 20 -16 20 -20z m-430 1 c0 -4 -7 -6 -15 -3 -8 4 -15 10 -15 15 0 4 7 6 15 3 8 -4 15 -10 15 -15z m-455 -5 c222 -38 457 -156 627 -315 l63 -58 -319 -317 c-230 -229 -322 -315 -331 -308 -7 5 -28 21 -46 36 -56 44 -154 95 -236 123 -103 36 -266 45 -367 21 -98 -23 -191 -76 -265 -149 -68 -68 -85 -92 -77 -106 3 -5 0 -11 -8 -14 -42 -16 -80 -221 -66 -348 11 -96 69 -276 82 -257 7 9 8 8 4 -5 -4 -11 7 -38 27 -70 51 -80 53 -84 29 -63 -35 31 -130 178 -171 267 -87 186 -114 310 -115 524 0 143 3 172 28 270 53 209 144 367 300 520 142 140 278 213 465 250 92 18 269 18 376 -1z m472 -11 c-4 -3 -7 0 -7 7 0 7 3 10 7 7 3 -4 3 -10 0 -14z m20 -10 c-4 -3 -7 0 -7 7 0 7 3 10 7 7 3 -4 3 -10 0 -14z m43 -15 c10 -21 10 -21 -3 -6 -8 10 -17 15 -20 11 -4 -3 -7 -1 -7 5 0 20 19 13 30 -10z m50 -24 c0 -2 -7 -4 -15 -4 -8 0 -15 4 -15 10 0 5 7 7 15 4 8 -4 15 -8 15 -10z m20 -14 c0 -5 -5 -10 -11 -10 -5 0 -7 5 -4 10 3 6 8 10 11 10 2 0 4 -4 4 -10z m387 -17 c-4 -3 -7 0 -7 7 0 7 3 10 7 7 3 -4 3 -10 0 -14z m-267 -77 c7 -9 10 -19 7 -23 -4 -3 -9 2 -13 11 -3 9 -12 16 -20 16 -7 0 -19 8 -26 18 -7 10 -21 21 -30 25 -10 3 -18 11 -18 17 0 12 78 -39 100 -64z m305 54 c3 -5 4 -10 1 -10 -3 0 -8 5 -11 10 -3 6 -4 10 -1 10 3 0 8 -4 11 -10z m6 -37 c13 -16 12 -17 -3 -4 -10 7 -18 15 -18 17 0 8 8 3 21 -13z m114 -98 c106 -150 178 -315 215 -495 19 -91 21 -127 17 -270 -4 -139 -9 -180 -32 -260 -90 -319 -307 -576 -585 -690 -121 -50 -209 -65 -370 -64 -122 0 -161 5 -246 27 -164 42 -303 105 -429 195 -74 52 -185 149 -185 161 0 9 616 625 630 629 5 2 33 -15 62 -38 109 -87 271 -149 414 -158 283 -17 522 149 589 413 26 103 14 285 -26 390 -25 64 -78 175 -85 175 -3 0 -4 -6 -1 -13 3 -8 -1 -14 -9 -14 -8 0 -13 5 -11 11 2 5 -6 21 -17 34 -12 13 -21 29 -22 35 -2 43 28 20 91 -68z m-377 29 c5 -9 13 -15 18 -14 5 1 10 -4 12 -10 3 -9 -1 -9 -15 -2 -26 14 -49 42 -35 42 6 0 15 -7 20 -16z m62 -59 c7 -8 9 -15 6 -15 -4 0 -14 7 -22 15 -9 8 -11 15 -6 15 5 0 15 -7 22 -15z m324 -64 c-6 -6 -11 1 -18 29 l-7 25 15 -25 c8 -14 12 -27 10 -29z m-274 -6 c14 -19 14 -19 -2 -6 -10 7 -18 18 -18 24 0 6 1 8 3 6 1 -2 9 -13 17 -24z m50 -61 c0 -8 4 -14 9 -14 5 0 11 -7 15 -15 11 -29 -12 -15 -26 15 -7 17 -16 30 -20 30 -5 0 -8 5 -8 11 0 8 5 8 15 -1 8 -7 15 -19 15 -26z m270 -34 c0 -5 -2 -10 -4 -10 -3 0 -8 5 -11 10 -3 6 -1 10 4 10 6 0 11 -4 11 -10z m5 -40 c3 -5 4 -10 1 -10 -3 0 -8 5 -11 10 -3 6 -4 10 -1 10 3 0 8 -4 11 -10z m-207 -55 c-3 -3 -9 2 -12 12 -6 14 -5 15 5 6 7 -7 10 -15 7 -18z m42 -66 c0 -5 -4 -9 -10 -9 -5 0 -10 7 -10 16 0 8 5 12 10 9 6 -3 10 -10 10 -16z m187 4 c-4 -3 -7 0 -7 7 0 7 3 10 7 7 3 -4 3 -10 0 -14z m-177 -33 c0 -5 -2 -10 -4 -10 -3 0 -8 5 -11 10 -3 6 -1 10 4 10 6 0 11 -4 11 -10z m7 -27 c-4 -3 -10 -3 -14 0 -3 4 0 7 7 7 7 0 10 -3 7 -7z m23 -68 c4 -5 10 -37 14 -70 5 -50 4 -56 -6 -35 -6 14 -10 32 -9 42 1 9 -3 19 -8 22 -6 4 -8 12 -5 20 3 7 0 24 -5 38 -5 14 -7 29 -3 33 4 4 9 -4 10 -17 2 -12 7 -27 12 -33z m147 -2 c-4 -3 -7 0 -7 7 0 7 3 10 7 7 3 -4 3 -10 0 -14z m-10 -50 c-4 -3 -7 0 -7 7 0 7 3 10 7 7 3 -4 3 -10 0 -14z m-25 -70 c-6 -2 -10 -9 -6 -14 3 -5 0 -9 -5 -9 -12 0 -14 13 -4 23 3 4 11 7 17 6 6 0 5 -3 -2 -6z m-72 -118 c4 3 6 -4 3 -15 -7 -27 -22 -35 -36 -20 -9 10 -8 12 6 7 18 -7 25 17 7 28 -5 3 -10 16 -9 28 0 19 2 19 11 -6 5 -15 13 -25 18 -22z m-2000 -46 c0 -5 -5 -7 -11 -3 -8 4 -9 -1 -5 -17 3 -13 3 -18 0 -10 -5 11 -11 8 -25 -10 -18 -24 -18 -24 -12 -1 3 12 10 22 15 22 5 0 7 4 4 9 -4 5 0 12 6 14 21 9 28 8 28 -4z m-80 -103 c0 -3 -5 -8 -12 -12 -7 -4 -8 -3 -4 4 7 12 16 16 16 8z m83 -77 c-8 -30 -23 -11 -23 29 1 36 1 36 14 13 7 -13 11 -32 9 -42z m-114 -18 c-6 -18 -14 -30 -17 -27 -2 3 1 19 8 36 16 40 23 33 9 -9z m131 -81 c0 -13 -1 -13 -10 0 -5 8 -10 22 -10 30 0 13 1 13 10 0 5 -8 10 -22 10 -30z m-153 13 c-4 -3 -7 0 -7 7 0 7 3 10 7 7 3 -4 3 -10 0 -14z m0 -55 c-3 -8 -6 -5 -6 6 -1 11 2 17 5 13 3 -3 4 -12 1 -19z m168 2 c3 -5 1 -10 -4 -10 -6 0 -11 5 -11 10 0 6 2 10 4 10 3 0 8 -4 11 -10z m-168 -42 c-3 -8 -6 -5 -6 6 -1 11 2 17 5 13 3 -3 4 -12 1 -19z m184 -24 c-9 -17 -10 -17 -11 -2 0 9 -3 25 -6 35 -6 17 -6 17 11 2 13 -13 15 -21 6 -35z m-177 -49 c3 -8 1 -15 -4 -15 -6 0 -10 7 -10 15 0 8 2 15 4 15 2 0 6 -7 10 -15z m231 -45 c3 -5 4 -10 1 -10 -3 0 -8 5 -11 10 -3 6 -4 10 -1 10 3 0 8 -4 11 -10z m-205 -62 c0 -19 -2 -20 -10 -8 -13 19 -13 30 0 30 6 0 10 -10 10 -22z m235 12 c3 -5 1 -10 -4 -10 -6 0 -11 5 -11 10 0 6 2 10 4 10 3 0 8 -4 11 -10z m35 -58 c0 -1 -9 2 -20 8 -11 6 -20 15 -20 20 0 6 9 2 20 -7 11 -10 20 -19 20 -21z m40 -59 c0 -6 6 -13 13 -16 6 -2 9 -7 6 -11 -3 -4 -19 10 -34 29 -23 31 -24 34 -6 23 12 -7 21 -18 21 -25z m-273 0 c-4 -3 -10 -3 -14 0 -3 4 0 7 7 7 7 0 10 -3 7 -7z m374 -113 c29 -27 48 -50 43 -50 -5 0 -32 23 -59 50 -27 28 -46 50 -43 50 3 0 30 -22 59 -50z m-318 3 c15 -32 15 -35 1 -18 -24 30 -36 55 -26 55 4 0 16 -17 25 -37z m62 -94 c4 -22 19 -39 55 -59 8 -5 12 -11 8 -15 -11 -12 -69 50 -74 80 -3 16 -3 27 1 24 3 -4 8 -17 10 -30z m325 22 c0 -5 9 -11 20 -14 11 -3 20 -13 20 -23 0 -15 -2 -16 -12 -3 -7 8 -22 22 -33 32 -10 9 -14 17 -7 17 7 0 12 -4 12 -9z m83 -64 c9 -3 17 -11 17 -17 0 -6 -11 -3 -25 6 -14 9 -25 21 -25 28 0 8 3 8 8 0 4 -6 15 -13 25 -17z m44 -34 c-4 -3 -10 -3 -14 0 -3 4 0 7 7 7 7 0 10 -3 7 -7z m28 -13 c3 -5 -1 -10 -10 -10 -9 0 -13 5 -10 10 3 6 8 10 10 10 2 0 7 -4 10 -10z m-359 -27 c17 -16 23 -22 14 -15 -9 6 -19 10 -22 7 -3 -3 -13 4 -23 15 -27 30 -4 24 31 -7z m434 -14 c22 -12 43 -25 46 -30 6 -10 -48 12 -56 23 -3 4 -17 11 -30 17 -14 5 -20 10 -13 10 7 1 31 -8 53 -20z m-366 -45 c3 -8 2 -12 -4 -9 -6 3 -10 10 -10 16 0 14 7 11 14 -7z m452 -5 c14 2 68 -19 63 -23 -10 -11 -89 19 -89 34 0 12 2 12 9 2 4 -8 12 -13 17 -13z m-406 -13 c0 -11 -19 -15 -25 -6 -3 5 1 10 9 10 9 0 16 -2 16 -4z m1360 -6 c0 -5 -7 -7 -15 -4 -8 4 -15 8 -15 10 0 2 7 4 15 4 8 0 15 -4 15 -10z m-35 -10 c3 -6 -4 -10 -17 -10 -18 0 -20 2 -8 10 19 12 18 12 25 0z m-1308 -17 c-4 -3 -7 0 -7 7 0 7 3 10 7 7 3 -4 3 -10 0 -14z m490 0 c-4 -3 -7 0 -7 7 0 7 3 10 7 7 3 -4 3 -10 0 -14z m40 0 c-4 -3 -10 -3 -14 0 -3 4 0 7 7 7 7 0 10 -3 7 -7z m672 -14 c-22 -14 -33 -10 -19 6 7 8 17 12 22 9 6 -4 5 -10 -3 -15z m58 14 c-4 -3 -10 -3 -14 0 -3 4 0 7 7 7 7 0 10 -3 7 -7z m-1230 -20 c-4 -3 -7 0 -7 7 0 7 3 10 7 7 3 -4 3 -10 0 -14z m533 7 c0 -5 -4 -10 -10 -10 -5 0 -10 5 -10 10 0 6 5 10 10 10 6 0 10 -4 10 -10z m46 -18 c-22 -5 -30 3 -21 18 5 8 11 7 22 -2 15 -12 14 -13 -1 -16z m691 21 c-4 -3 -10 -3 -14 0 -3 4 0 7 7 7 7 0 10 -3 7 -7z m-1237 -7 c0 -3 -5 -8 -12 -12 -7 -4 -8 -3 -4 4 7 12 16 16 16 8z m1100 -6 c0 -5 -5 -10 -11 -10 -5 0 -7 5 -4 10 3 6 8 10 11 10 2 0 4 -4 4 -10z m-505 -10 c-3 -5 -11 -10 -16 -10 -6 0 -7 5 -4 10 3 6 11 10 16 10 6 0 7 -4 4 -10z m84 -16 c2 -2 -8 -4 -22 -4 -18 0 -27 5 -27 15 0 13 4 14 23 4 12 -6 24 -13 26 -15z m321 11 c0 -11 -10 -15 -37 -14 l-38 1 35 13 c19 7 36 14 38 14 1 1 2 -6 2 -14z m70 5 c0 -5 -2 -10 -4 -10 -3 0 -8 5 -11 10 -3 6 -1 10 4 10 6 0 11 -4 11 -10z m77 -27 c-4 -3 -7 0 -7 7 0 7 3 10 7 7 3 -4 3 -10 0 -14z m-369 0 c-10 -2 -28 -2 -40 0 -13 2 -5 4 17 4 22 1 32 -1 23 -4z m110 0 c-10 -2 -28 -2 -40 0 -13 2 -5 4 17 4 22 1 32 -1 23 -4z m-773 -12 c3 -5 1 -12 -4 -15 -5 -3 -11 1 -15 9 -6 16 9 21 19 6z m995 0 c0 -5 -14 -14 -32 -20 -34 -12 -32 -6 4 15 13 6 24 12 26 13 1 1 2 -3 2 -8z m-973 -28 c-4 -3 -7 0 -7 7 0 7 3 10 7 7 3 -4 3 -10 0 -14z m50 -20 c-4 -3 -7 0 -7 7 0 7 3 10 7 7 3 -4 3 -10 0 -14z m838 7 c-11 -5 -29 -8 -40 -8 -16 0 -15 2 5 8 34 11 60 11 35 0z m-756 -16 c2 -2 2 -6 -1 -10 -3 -3 -21 2 -39 10 l-34 15 35 -6 c19 -3 37 -7 39 -9z m691 -4 c0 -5 -9 -10 -21 -10 -11 0 -17 5 -14 10 3 6 13 10 21 10 8 0 14 -4 14 -10z m-645 -10 c18 -8 17 -9 -7 -9 -16 -1 -28 4 -28 9 0 12 8 12 35 0z m575 -4 c0 -3 -4 -8 -10 -11 -5 -3 -10 -1 -10 4 0 6 5 11 10 11 6 0 10 -2 10 -4z m-510 -10 c0 -3 -5 -8 -12 -12 -7 -4 -8 -3 -4 4 7 12 16 16 16 8z m457 -13 c-4 -3 -7 0 -7 7 0 7 3 10 7 7 3 -4 3 -10 0 -14z m-393 -9 c3 -8 2 -12 -4 -9 -6 3 -10 10 -10 16 0 14 7 11 14 -7z m336 6 c0 -5 -8 -10 -17 -10 -15 0 -16 2 -3 10 19 12 20 12 20 0z m-75 -10 c-8 -13 -215 -13 -215 0 0 5 47 9 110 9 69 0 108 -3 105 -9z"/>
 <path d="M2493 2329 c3 -17 47 -68 47 -53 0 5 -11 23 -24 39 -14 17 -24 23 -23 14z"/>
 </g>
<g id="layer111" fill="#f6b606" stroke="none">
 <path d="M0 1460 l0 -1460 1595 0 1595 0 0 1460 0 1460 -1595 0 -1595 0 0 -1460z m1434 1305 c-4 -10 -19 -15 -43 -14 l-36 1 33 8 c18 4 36 10 39 14 10 10 13 7 7 -9z m251 1 c22 -1 46 -5 53 -10 7 -4 19 -5 27 -2 7 2 18 -1 23 -7 8 -9 -12 -10 -86 -2 -66 7 -97 14 -100 24 -4 11 1 12 19 6 13 -4 42 -9 64 -9z m-112 -3 c-13 -2 -33 -2 -45 0 -13 2 -3 4 22 4 25 0 35 -2 23 -4z m-236 -19 c-10 -10 -127 -32 -127 -24 0 4 21 12 48 18 57 12 87 14 79 6z m503 -8 c0 -3 -5 -8 -12 -12 -7 -4 -8 -3 -4 4 7 12 16 16 16 8z m30 -16 c0 -5 -2 -10 -4 -10 -3 0 -8 5 -11 10 -3 6 -1 10 4 10 6 0 11 -4 11 -10z m-735 -37 c-21 -7 -41 -11 -43 -8 -8 8 2 14 26 18 12 2 24 6 28 10 4 3 11 4 17 0 6 -4 -7 -12 -28 -20z m835 11 c0 -2 -12 -4 -27 -4 -21 0 -24 3 -14 9 13 8 41 5 41 -5z m45 -16 c14 -6 25 -15 25 -20 0 -5 -13 -2 -30 7 -45 23 -41 34 5 13z m-945 -18 c-8 -6 -22 -10 -30 -10 -8 0 -4 6 10 13 27 15 44 12 20 -3z m-53 -27 c-4 -3 -7 0 -7 7 0 7 3 10 7 7 3 -4 3 -10 0 -14z m258 0 c-11 -2 -32 -8 -47 -13 -21 -7 -26 -6 -21 6 3 9 19 14 47 13 22 -1 32 -3 21 -6z m183 -19 c-2 -1 -16 0 -33 3 -25 5 -27 7 -10 13 17 6 52 -7 43 -16z m649 9 c-4 -3 -7 0 -7 7 0 7 3 10 7 7 3 -4 3 -10 0 -14z m-577 -1 c0 -5 -13 -7 -30 -4 -16 2 -30 6 -30 8 0 2 14 4 30 4 17 0 30 -4 30 -8z m690 -53 c0 -5 -7 -6 -15 -3 -8 4 -15 10 -15 16 0 5 -4 7 -9 4 -5 -3 -14 1 -21 9 -7 8 -19 15 -26 15 -8 0 -14 5 -14 11 0 5 23 -2 50 -17 28 -15 50 -31 50 -35z m-1135 42 c-15 -14 -85 -30 -102 -24 -12 5 -14 3 -8 -8 4 -8 5 -11 0 -7 -4 4 -14 3 -22 -4 -7 -6 -16 -8 -20 -4 -3 3 -1 6 5 6 7 0 12 4 12 10 0 5 -7 7 -16 3 -12 -4 -15 -2 -12 8 3 10 18 13 54 11 27 -2 60 1 74 7 33 13 47 14 35 2z m50 -1 c-3 -5 -12 -7 -20 -3 -21 7 -19 13 6 13 11 0 18 -4 14 -10z m499 -7 c14 -4 16 -7 5 -14 -7 -4 -18 -4 -25 2 -6 5 -18 7 -26 4 -8 -3 -21 2 -29 11 -12 15 -11 16 21 10 19 -4 43 -10 54 -13z m46 -13 c0 -5 -5 -10 -11 -10 -5 0 -7 5 -4 10 3 6 8 10 11 10 2 0 4 -4 4 -10z m-782 -20 c-7 -10 -14 -17 -17 -15 -2 3 -12 -1 -21 -7 -9 -7 -3 -1 14 15 36 32 40 34 24 7z m809 13 c-4 -3 -10 -3 -14 0 -3 4 0 7 7 7 7 0 10 -3 7 -7z m20 -20 c-4 -3 -10 -3 -14 0 -3 4 0 7 7 7 7 0 10 -3 7 -7z m83 -23 c0 -5 -13 -4 -30 1 -16 6 -30 15 -30 19 0 5 14 4 30 -1 17 -6 30 -15 30 -19z m-893 13 c-4 -3 -10 -3 -14 0 -3 4 0 7 7 7 7 0 10 -3 7 -7z m910 -30 c-4 -3 -7 0 -7 7 0 7 3 10 7 7 3 -4 3 -10 0 -14z m483 -15 c0 -5 8 -8 18 -8 10 0 26 -15 36 -32 14 -27 14 -29 1 -13 -9 11 -21 19 -26 18 -5 -2 -9 1 -9 5 0 4 -13 16 -30 25 -16 10 -30 22 -30 28 0 5 9 4 20 -3 11 -7 20 -16 20 -20z m-430 1 c0 -4 -7 -6 -15 -3 -8 4 -15 10 -15 15 0 4 7 6 15 3 8 -4 15 -10 15 -15z m-455 -5 c222 -38 457 -156 627 -315 l63 -58 -319 -317 c-230 -229 -322 -315 -331 -308 -7 5 -28 21 -46 36 -56 44 -154 95 -236 123 -103 36 -266 45 -367 21 -93 -22 -196 -78 -251 -137 -38 -41 -44 -52 -35 -68 15 -29 12 -38 -5 -15 -14 19 -15 18 -34 -6 -11 -13 -17 -28 -15 -32 3 -4 0 -8 -7 -8 -7 0 -9 -8 -6 -21 3 -12 0 -22 -8 -25 -45 -18 -78 -273 -40 -311 15 -14 15 -17 1 -25 -8 -5 -13 -15 -10 -23 4 -8 9 -13 14 -10 4 2 5 -7 2 -20 -3 -20 -1 -24 12 -19 12 5 16 0 16 -17 0 -19 -2 -21 -10 -9 -13 21 -12 3 2 -37 7 -18 15 -33 20 -33 4 0 5 -6 2 -14 -3 -7 2 -20 10 -29 9 -9 16 -21 16 -28 0 -14 48 -99 56 -99 3 0 -4 16 -16 35 -12 19 -17 35 -12 35 9 0 36 -55 37 -75 0 -14 28 -55 37 -55 4 0 5 8 1 18 -3 9 -3 14 1 11 4 -4 9 -17 11 -30 4 -22 19 -39 55 -59 8 -5 12 -11 9 -14 -3 -4 -29 12 -58 35 -99 79 -245 316 -300 488 -43 132 -54 211 -55 376 0 143 3 172 28 270 53 209 144 367 300 520 142 140 278 213 465 250 92 18 269 18 376 -1z m472 -11 c-4 -3 -7 0 -7 7 0 7 3 10 7 7 3 -4 3 -10 0 -14z m20 -10 c-4 -3 -7 0 -7 7 0 7 3 10 7 7 3 -4 3 -10 0 -14z m43 -15 c10 -21 10 -21 -3 -6 -8 10 -17 15 -20 11 -4 -3 -7 -1 -7 5 0 20 19 13 30 -10z m50 -24 c0 -2 -7 -4 -15 -4 -8 0 -15 4 -15 10 0 5 7 7 15 4 8 -4 15 -8 15 -10z m20 -14 c0 -5 -5 -10 -11 -10 -5 0 -7 5 -4 10 3 6 8 10 11 10 2 0 4 -4 4 -10z m387 -17 c-4 -3 -7 0 -7 7 0 7 3 10 7 7 3 -4 3 -10 0 -14z m-267 -77 c7 -9 10 -19 7 -23 -4 -3 -9 2 -13 11 -3 9 -12 16 -20 16 -7 0 -19 8 -26 18 -7 10 -21 21 -30 25 -10 3 -18 11 -18 17 0 12 78 -39 100 -64z m339 30 c7 -8 10 -20 6 -25 -3 -6 0 -9 7 -6 29 11 176 -228 232 -378 61 -163 79 -276 73 -467 -4 -139 -9 -180 -32 -260 -90 -319 -307 -576 -585 -690 -121 -50 -209 -65 -370 -64 -122 0 -161 5 -246 27 -164 42 -303 105 -429 195 -74 52 -185 149 -185 161 0 9 616 625 630 629 5 2 33 -15 62 -38 152 -121 382 -182 563 -151 156 27 348 154 302 200 -6 6 -7 11 -1 11 6 0 15 -5 21 -11 9 -9 10 -6 6 10 -3 12 -9 24 -14 27 -5 3 -9 15 -8 27 0 19 2 19 11 -6 5 -15 14 -25 19 -22 5 4 6 -2 3 -12 -4 -12 0 -10 14 7 11 13 18 28 16 32 -3 4 0 8 6 8 6 0 8 5 5 10 -3 6 -2 10 3 10 5 0 14 11 20 25 15 32 15 35 1 35 -5 0 -7 -4 -4 -10 3 -5 1 -10 -4 -10 -21 0 -11 21 14 30 21 8 25 16 25 47 0 82 8 214 13 220 4 3 0 17 -7 32 -7 14 -11 34 -8 45 2 11 0 16 -6 12 -6 -3 -14 -1 -18 5 -4 8 -3 9 4 5 7 -4 12 -1 12 7 0 8 -8 18 -17 21 -13 5 -14 9 -5 15 9 5 7 20 -9 61 -11 30 -22 61 -25 69 -2 8 -7 11 -10 8 -3 -3 -1 -15 6 -26 7 -14 7 -21 0 -21 -5 0 -11 6 -11 13 -1 6 -3 23 -4 37 -1 13 -8 26 -14 28 -6 2 -8 9 -4 15 4 7 -2 5 -12 -3 -16 -13 -18 -13 -13 0 2 8 -5 25 -16 38 -12 13 -21 32 -21 42 0 10 -11 31 -25 46 -22 23 -22 25 -4 16 11 -6 26 -18 33 -26z m-28 -13 c13 -16 12 -17 -3 -4 -10 7 -18 15 -18 17 0 8 8 3 21 -13z m-263 -69 c5 -9 13 -15 18 -14 5 1 10 -4 12 -10 3 -9 -1 -9 -15 -2 -26 14 -49 42 -35 42 6 0 15 -7 20 -16z m62 -59 c7 -8 9 -15 6 -15 -4 0 -14 7 -22 15 -9 8 -11 15 -6 15 5 0 15 -7 22 -15z m50 -70 c14 -19 14 -19 -2 -6 -10 7 -18 18 -18 24 0 6 1 8 3 6 1 -2 9 -13 17 -24z m50 -61 c0 -8 4 -14 9 -14 5 0 11 -7 15 -15 11 -29 -12 -15 -26 15 -7 17 -16 30 -20 30 -5 0 -8 5 -8 11 0 8 5 8 15 -1 8 -7 15 -19 15 -26z m68 -129 c-3 -3 -9 2 -12 12 -6 14 -5 15 5 6 7 -7 10 -15 7 -18z m42 -66 c0 -5 -4 -9 -10 -9 -5 0 -10 7 -10 16 0 8 5 12 10 9 6 -3 10 -10 10 -16z m10 -29 c0 -5 -2 -10 -4 -10 -3 0 -8 5 -11 10 -3 6 -1 10 4 10 6 0 11 -4 11 -10z m7 -27 c-4 -3 -10 -3 -14 0 -3 4 0 7 7 7 7 0 10 -3 7 -7z m23 -68 c4 -5 10 -37 14 -70 5 -50 4 -56 -6 -35 -6 14 -10 32 -9 42 1 9 -3 19 -8 22 -6 4 -8 12 -5 20 3 7 0 24 -5 38 -5 14 -7 29 -3 33 4 4 9 -4 10 -17 2 -12 7 -27 12 -33z m-1960 -285 c0 -5 -2 -10 -4 -10 -3 0 -8 5 -11 10 -3 6 -1 10 4 10 6 0 11 -4 11 -10z m-40 -40 c-6 -11 -12 -20 -14 -20 -2 0 -2 9 1 20 3 11 9 20 15 20 5 0 4 -9 -2 -20z m43 -141 c-8 -30 -23 -11 -23 29 1 36 1 36 14 13 7 -13 11 -32 9 -42z m-114 -18 c-6 -18 -14 -30 -17 -27 -2 3 1 19 8 36 16 40 23 33 9 -9z m131 -81 c0 -13 -1 -13 -10 0 -5 8 -10 22 -10 30 0 13 1 13 10 0 5 -8 10 -22 10 -30z m-153 13 c-4 -3 -7 0 -7 7 0 7 3 10 7 7 3 -4 3 -10 0 -14z m0 -55 c-3 -8 -6 -5 -6 6 -1 11 2 17 5 13 3 -3 4 -12 1 -19z m168 2 c3 -5 1 -10 -4 -10 -6 0 -11 5 -11 10 0 6 2 10 4 10 3 0 8 -4 11 -10z m-168 -42 c-3 -8 -6 -5 -6 6 -1 11 2 17 5 13 3 -3 4 -12 1 -19z m184 -24 c-9 -17 -10 -17 -11 -2 0 9 -3 25 -6 35 -6 17 -6 17 11 2 13 -13 15 -21 6 -35z m54 -94 c3 -5 4 -10 1 -10 -3 0 -8 5 -11 10 -3 6 -4 10 -1 10 3 0 8 -4 11 -10z m30 -50 c3 -5 1 -10 -4 -10 -6 0 -11 5 -11 10 0 6 2 10 4 10 3 0 8 -4 11 -10z m35 -58 c0 -1 -9 2 -20 8 -11 6 -20 15 -20 20 0 6 9 2 20 -7 11 -10 20 -19 20 -21z m40 -59 c0 -6 6 -13 13 -16 6 -2 9 -7 6 -11 -3 -4 -19 10 -34 29 -23 31 -24 34 -6 23 12 -7 21 -18 21 -25z m-273 0 c-4 -3 -10 -3 -14 0 -3 4 0 7 7 7 7 0 10 -3 7 -7z m374 -113 c29 -27 48 -50 43 -50 -5 0 -32 23 -59 50 -27 28 -46 50 -43 50 3 0 30 -22 59 -50z m69 -69 c0 -5 9 -11 20 -14 11 -3 20 -13 20 -23 0 -15 -2 -16 -12 -3 -7 8 -22 22 -33 32 -10 9 -14 17 -7 17 7 0 12 -4 12 -9z m83 -64 c9 -3 17 -11 17 -17 0 -6 -11 -3 -25 6 -14 9 -25 21 -25 28 0 8 3 8 8 0 4 -6 15 -13 25 -17z m44 -34 c-4 -3 -10 -3 -14 0 -3 4 0 7 7 7 7 0 10 -3 7 -7z m28 -13 c3 -5 -1 -10 -10 -10 -9 0 -13 5 -10 10 3 6 8 10 10 10 2 0 7 -4 10 -10z m-359 -27 c17 -16 23 -22 14 -15 -9 6 -19 10 -22 7 -3 -3 -13 4 -23 15 -27 30 -4 24 31 -7z m434 -14 c22 -12 43 -25 46 -30 6 -10 -48 12 -56 23 -3 4 -17 11 -30 17 -14 5 -20 10 -13 10 7 1 31 -8 53 -20z m1120 -19 c0 -5 -5 -10 -11 -10 -5 0 -7 5 -4 10 3 6 8 10 11 10 2 0 4 -4 4 -10z m-1486 -26 c3 -8 2 -12 -4 -9 -6 3 -10 10 -10 16 0 14 7 11 14 -7z m452 -5 c14 2 68 -19 63 -23 -10 -11 -89 19 -89 34 0 12 2 12 9 2 4 -8 12 -13 17 -13z m-406 -13 c0 -11 -19 -15 -25 -6 -3 5 1 10 9 10 9 0 16 -2 16 -4z m1360 -6 c0 -5 -7 -7 -15 -4 -8 4 -15 8 -15 10 0 2 7 4 15 4 8 0 15 -4 15 -10z m-35 -10 c3 -6 -4 -10 -17 -10 -18 0 -20 2 -8 10 19 12 18 12 25 0z m-1308 -17 c-4 -3 -7 0 -7 7 0 7 3 10 7 7 3 -4 3 -10 0 -14z m490 0 c-4 -3 -7 0 -7 7 0 7 3 10 7 7 3 -4 3 -10 0 -14z m40 0 c-4 -3 -10 -3 -14 0 -3 4 0 7 7 7 7 0 10 -3 7 -7z m672 -14 c-22 -14 -33 -10 -19 6 7 8 17 12 22 9 6 -4 5 -10 -3 -15z m58 14 c-4 -3 -10 -3 -14 0 -3 4 0 7 7 7 7 0 10 -3 7 -7z m-1230 -20 c-4 -3 -7 0 -7 7 0 7 3 10 7 7 3 -4 3 -10 0 -14z m533 7 c0 -5 -4 -10 -10 -10 -5 0 -10 5 -10 10 0 6 5 10 10 10 6 0 10 -4 10 -10z m46 -18 c-22 -5 -30 3 -21 18 5 8 11 7 22 -2 15 -12 14 -13 -1 -16z m691 21 c-4 -3 -10 -3 -14 0 -3 4 0 7 7 7 7 0 10 -3 7 -7z m-1237 -7 c0 -3 -5 -8 -12 -12 -7 -4 -8 -3 -4 4 7 12 16 16 16 8z m1100 -6 c0 -5 -5 -10 -11 -10 -5 0 -7 5 -4 10 3 6 8 10 11 10 2 0 4 -4 4 -10z m-505 -10 c-3 -5 -11 -10 -16 -10 -6 0 -7 5 -4 10 3 6 11 10 16 10 6 0 7 -4 4 -10z m84 -16 c2 -2 -8 -4 -22 -4 -18 0 -27 5 -27 15 0 13 4 14 23 4 12 -6 24 -13 26 -15z m321 11 c0 -11 -10 -15 -37 -14 l-38 1 35 13 c19 7 36 14 38 14 1 1 2 -6 2 -14z m70 5 c0 -5 -2 -10 -4 -10 -3 0 -8 5 -11 10 -3 6 -1 10 4 10 6 0 11 -4 11 -10z m77 -27 c-4 -3 -7 0 -7 7 0 7 3 10 7 7 3 -4 3 -10 0 -14z m-369 0 c-10 -2 -28 -2 -40 0 -13 2 -5 4 17 4 22 1 32 -1 23 -4z m110 0 c-10 -2 -28 -2 -40 0 -13 2 -5 4 17 4 22 1 32 -1 23 -4z m-773 -12 c3 -5 1 -12 -4 -15 -5 -3 -11 1 -15 9 -6 16 9 21 19 6z m995 0 c0 -5 -14 -14 -32 -20 -34 -12 -32 -6 4 15 13 6 24 12 26 13 1 1 2 -3 2 -8z m-973 -28 c-4 -3 -7 0 -7 7 0 7 3 10 7 7 3 -4 3 -10 0 -14z m50 -20 c-4 -3 -7 0 -7 7 0 7 3 10 7 7 3 -4 3 -10 0 -14z m838 7 c-11 -5 -29 -8 -40 -8 -16 0 -15 2 5 8 34 11 60 11 35 0z m-756 -16 c2 -2 2 -6 -1 -10 -3 -3 -21 2 -39 10 l-34 15 35 -6 c19 -3 37 -7 39 -9z m691 -4 c0 -5 -9 -10 -21 -10 -11 0 -17 5 -14 10 3 6 13 10 21 10 8 0 14 -4 14 -10z m-645 -10 c18 -8 17 -9 -7 -9 -16 -1 -28 4 -28 9 0 12 8 12 35 0z m575 -4 c0 -3 -4 -8 -10 -11 -5 -3 -10 -1 -10 4 0 6 5 11 10 11 6 0 10 -2 10 -4z m-510 -10 c0 -3 -5 -8 -12 -12 -7 -4 -8 -3 -4 4 7 12 16 16 16 8z m457 -13 c-4 -3 -7 0 -7 7 0 7 3 10 7 7 3 -4 3 -10 0 -14z m-393 -9 c3 -8 2 -12 -4 -9 -6 3 -10 10 -10 16 0 14 7 11 14 -7z m336 6 c0 -5 -8 -10 -17 -10 -15 0 -16 2 -3 10 19 12 20 12 20 0z m-75 -10 c-8 -13 -215 -13 -215 0 0 5 47 9 110 9 69 0 108 -3 105 -9z"/>
 <path d="M2495 2310 c3 -5 8 -10 11 -10 3 0 2 5 -1 10 -3 6 -8 10 -11 10 -3 0 -2 -4 1 -10z"/>
 </g>
<g id="layer112" fill="#e7b72d" stroke="none">
 <path d="M0 1460 l0 -1460 1595 0 1595 0 0 1460 0 1460 -1595 0 -1595 0 0 -1460z m1435 1309 c-9 -13 157 -8 167 5 3 5 19 4 37 -4 17 -7 44 -10 61 -7 16 4 32 2 36 -4 3 -6 15 -9 25 -6 10 3 24 -2 30 -10 7 -8 21 -12 31 -10 11 3 16 1 11 -6 -4 -7 0 -8 12 -3 10 4 21 2 24 -3 4 -6 24 -12 46 -15 61 -7 62 -7 35 -17 -22 -7 -20 -8 10 -5 35 4 64 -6 88 -31 12 -12 34 -17 55 -14 4 0 7 -3 7 -9 0 -6 3 -9 8 -8 15 5 71 -25 65 -35 -3 -5 -1 -7 4 -4 12 7 63 -36 63 -53 0 -13 17 -13 22 0 2 6 13 2 25 -10 12 -11 29 -20 38 -20 8 0 15 -4 15 -8 0 -14 56 -72 63 -65 4 3 7 -4 7 -16 0 -16 4 -21 14 -18 16 7 66 -28 66 -46 0 -6 -13 2 -30 18 -42 40 -37 18 6 -30 20 -22 31 -33 25 -23 -9 12 -9 18 0 23 6 4 14 3 18 -2 3 -5 27 -38 52 -74 109 -152 182 -317 219 -499 19 -91 21 -127 17 -270 -4 -139 -9 -180 -32 -260 -90 -319 -307 -576 -585 -690 -121 -50 -209 -65 -370 -64 -122 0 -161 5 -246 27 -164 42 -303 105 -429 195 -74 52 -185 149 -185 161 0 9 616 625 630 629 5 2 33 -15 62 -38 152 -121 382 -182 563 -151 156 27 348 154 302 200 -15 15 6 14 22 -1 9 -9 8 -2 -3 19 -9 18 -16 40 -15 50 0 16 1 16 10 -2 13 -28 1 70 -13 104 -6 14 -10 33 -9 43 1 9 -3 19 -8 22 -7 5 -7 15 -1 32 12 31 12 57 0 29 l-9 -20 -1 20 c-2 11 -2 26 -1 33 1 6 -3 12 -9 12 -6 0 -9 4 -5 9 3 5 1 12 -5 16 -6 4 -8 11 -5 16 4 5 1 9 -4 9 -6 0 -11 14 -11 30 0 39 -27 93 -42 84 -6 -4 -8 -3 -4 4 3 6 -7 25 -24 43 -16 19 -30 39 -30 46 0 7 -4 13 -10 13 -5 0 -10 6 -10 14 0 8 -7 17 -15 20 -9 3 -21 19 -26 36 -6 16 -15 30 -21 30 -5 0 -16 7 -24 15 -9 8 -12 15 -8 15 4 0 -8 10 -27 23 -19 12 -34 29 -34 37 -1 8 -6 14 -13 12 -7 -1 -15 5 -18 13 -4 8 -12 15 -20 15 -8 0 -19 9 -26 20 -7 11 -19 20 -26 20 -7 0 -17 11 -22 25 -7 18 -14 23 -26 18 -12 -4 -15 -3 -10 5 4 7 1 12 -10 12 -9 0 -23 8 -31 18 -10 11 -12 12 -8 2 4 -10 2 -9 -8 2 -8 10 -17 15 -20 11 -4 -3 -7 -1 -7 6 0 7 -4 9 -10 6 -5 -3 -10 -1 -10 5 0 6 -4 8 -10 5 -5 -3 -10 -1 -10 5 0 6 -4 9 -9 5 -5 -3 -16 2 -25 11 -9 8 -20 12 -26 9 -5 -3 -10 -1 -10 4 0 6 -3 10 -7 10 -22 -4 -42 3 -63 21 -13 11 -31 20 -42 20 -10 0 -18 6 -19 13 0 10 -2 10 -6 0 -2 -7 -9 -13 -14 -13 -6 0 -7 5 -4 10 8 12 -5 13 -25 0 -9 -5 -19 -5 -27 1 -7 6 -17 8 -23 4 -6 -4 -19 -1 -28 7 -9 8 -28 15 -42 16 -14 1 -36 4 -48 7 -17 4 -22 2 -16 -6 5 -9 2 -10 -10 -6 -10 4 -25 7 -34 8 -14 0 -13 2 3 9 34 14 -105 12 -162 -3 -29 -8 -50 -10 -47 -5 3 4 -19 8 -48 7 -35 0 -46 -3 -34 -8 11 -4 15 -10 10 -14 -6 -3 -16 -2 -23 2 -7 5 -26 2 -43 -6 -16 -8 -44 -15 -63 -16 -21 -1 -31 -5 -28 -11 4 -6 3 -8 -2 -4 -4 4 -14 3 -22 -4 -7 -6 -16 -8 -20 -4 -3 3 -1 6 5 6 7 0 12 4 12 10 0 5 -7 7 -16 3 -12 -4 -15 -2 -12 8 3 8 12 14 21 14 8 0 19 4 23 8 4 4 16 7 26 7 10 0 18 7 18 15 0 9 6 12 17 8 10 -4 14 -2 10 4 -6 10 27 27 46 24 4 -1 7 3 7 8 0 14 37 20 50 7 9 -8 11 -7 8 4 -2 11 4 14 21 12 14 -2 21 0 17 7 -4 7 -1 8 8 5 9 -3 16 -2 16 4 0 13 109 33 139 25 17 -4 22 -3 17 5 -5 8 1 12 16 12 13 0 30 5 38 10 19 13 23 12 15 -1z m-537 -199 c-7 -10 -14 -17 -17 -15 -2 3 -12 -1 -21 -7 -9 -7 -3 -1 14 15 36 32 40 34 24 7z m829 -7 c-4 -3 -10 -3 -14 0 -3 4 0 7 7 7 7 0 10 -3 7 -7z m-810 -10 c-4 -3 -10 -3 -14 0 -3 4 0 7 7 7 7 0 10 -3 7 -7z m508 -49 c222 -38 457 -156 627 -315 l63 -58 -319 -317 c-230 -229 -322 -315 -331 -308 -7 5 -28 21 -46 36 -56 44 -154 95 -236 123 -59 20 -105 28 -188 32 -133 6 -216 -10 -316 -63 -82 -43 -165 -126 -151 -150 5 -9 7 -36 5 -59 -3 -26 0 -53 10 -71 10 -20 12 -36 6 -52 -6 -16 -4 -33 7 -54 8 -16 13 -36 10 -43 -3 -8 2 -19 9 -25 8 -7 13 -16 10 -20 -3 -4 2 -13 10 -20 9 -7 13 -21 10 -30 -7 -21 14 -72 26 -64 5 3 6 -2 3 -10 -7 -18 14 -59 26 -51 6 3 7 -1 4 -10 -4 -10 -2 -15 6 -13 7 2 14 -5 15 -15 2 -10 12 -25 22 -34 10 -8 12 -12 6 -8 -24 12 -2 -22 23 -35 13 -7 24 -19 24 -27 0 -7 4 -13 9 -13 5 0 11 -9 14 -21 3 -12 10 -18 17 -14 6 3 9 2 8 -2 -2 -5 20 -31 47 -58 28 -26 49 -52 47 -56 -1 -5 5 -9 13 -9 8 0 15 -4 15 -9 0 -5 9 -11 20 -14 13 -3 20 -14 20 -29 0 -18 2 -20 10 -8 5 8 10 10 10 4 0 -7 9 -14 20 -17 11 -3 20 -12 20 -21 0 -10 5 -13 17 -9 11 4 14 3 9 -6 -6 -8 -2 -11 10 -9 11 2 18 -2 16 -9 -1 -7 7 -13 18 -13 21 0 97 -36 106 -51 3 -5 10 -7 15 -4 5 4 9 1 9 -5 0 -6 4 -9 8 -6 4 2 29 -6 55 -19 26 -14 47 -22 47 -19 0 3 7 -2 16 -11 11 -10 25 -14 40 -11 13 4 24 1 27 -7 3 -9 7 -9 19 1 13 10 18 9 28 -3 8 -9 21 -13 33 -9 13 4 17 2 13 -5 -4 -7 1 -11 13 -11 12 0 21 5 21 10 0 6 14 3 31 -6 43 -22 236 -22 297 0 23 8 42 11 42 6 0 -6 14 -10 31 -10 20 0 28 4 23 12 -5 7 -2 9 8 5 9 -3 21 0 27 6 6 6 11 7 11 2 0 -4 9 0 19 9 12 11 21 14 26 7 9 -15 28 -14 19 2 -4 6 -4 9 1 5 4 -4 23 -1 41 7 20 8 36 10 39 4 4 -5 1 -9 -5 -9 -6 0 -9 -4 -6 -9 3 -5 -8 -11 -25 -15 -20 -4 -28 -10 -23 -17 4 -7 3 -9 -4 -5 -6 3 -17 0 -25 -8 -8 -8 -18 -12 -22 -8 -3 4 -12 -1 -19 -10 -15 -20 -72 -45 -60 -27 4 7 1 10 -7 7 -8 -3 -13 -11 -12 -17 2 -6 -15 -14 -37 -17 -22 -4 -40 -11 -40 -17 0 -5 -13 -7 -29 -4 -19 4 -33 1 -40 -7 -7 -8 -21 -12 -31 -9 -11 3 -20 1 -20 -4 0 -5 -13 -8 -30 -5 -19 3 -30 0 -30 -7 0 -8 -11 -10 -34 -6 -20 4 -36 2 -40 -4 -9 -14 -216 -15 -216 -1 0 6 -12 10 -26 10 -17 0 -23 -4 -19 -12 4 -7 0 -5 -9 6 -10 13 -24 17 -45 14 -16 -2 -28 -1 -25 4 3 4 -15 8 -40 8 -26 0 -46 5 -46 11 0 5 -4 8 -10 4 -5 -3 -25 1 -45 9 -19 8 -35 12 -35 9 0 -4 -6 2 -14 12 -8 11 -19 16 -30 12 -9 -4 -16 -2 -16 4 0 6 -7 9 -14 6 -9 -4 -17 2 -21 13 -6 20 -70 44 -88 33 -6 -3 -7 -1 -4 4 7 12 -20 26 -33 18 -4 -3 -11 2 -14 11 -3 8 -10 12 -16 9 -5 -3 -10 1 -10 10 0 10 -7 15 -17 13 -10 -2 -17 2 -16 9 1 6 -4 14 -13 17 -10 4 -13 2 -7 -7 4 -6 -10 5 -31 25 -21 21 -42 36 -46 33 -8 -5 -47 34 -42 43 1 3 -4 7 -12 8 -59 9 -206 193 -286 359 -95 195 -123 319 -124 540 0 143 3 172 28 270 53 209 144 367 300 520 142 140 278 213 465 250 92 18 269 18 376 -1z m1003 -539 c-3 -3 -9 2 -12 12 -6 14 -5 15 5 6 7 -7 10 -15 7 -18z m-1878 -475 c0 -5 -2 -10 -4 -10 -3 0 -8 5 -11 10 -3 6 -1 10 4 10 6 0 11 -4 11 -10z m105 -480 c3 -5 4 -10 1 -10 -3 0 -8 5 -11 10 -3 6 -4 10 -1 10 3 0 8 -4 11 -10z m1625 -520 c0 -5 -5 -10 -11 -10 -5 0 -7 5 -4 10 3 6 8 10 11 10 2 0 4 -4 4 -10z m-80 -50 c0 -5 -7 -7 -15 -4 -8 4 -15 8 -15 10 0 2 7 4 15 4 8 0 15 -4 15 -10z m-813 -27 c-4 -3 -10 -3 -14 0 -3 4 0 7 7 7 7 0 10 -3 7 -7z"/>
 <path d="M2340 2470 c0 -5 5 -10 11 -10 5 0 7 5 4 10 -3 6 -8 10 -11 10 -2 0 -4 -4 -4 -10z"/>
 <path d="M2100 2380 c0 -7 3 -10 7 -7 3 4 3 10 0 14 -4 3 -7 0 -7 -7z"/>
 <path d="M2537 2253 c-6 -13 19 -54 28 -45 4 4 5 -1 2 -11 -4 -11 -3 -16 3 -12 6 3 11 1 11 -4 3 -20 4 -26 18 -68 8 -24 18 -43 23 -43 10 0 11 -5 -15 67 -12 34 -32 73 -44 87 -12 13 -19 27 -16 30 4 3 4 6 0 6 -3 0 -8 -3 -10 -7z"/>
 <path d="M2620 2041 c0 -6 4 -12 10 -16 5 -3 7 -12 3 -20 -3 -8 0 -15 6 -15 12 0 13 6 5 38 -6 21 -24 31 -24 13z"/>
 <path d="M2641 1965 c-1 -24 14 -50 22 -38 3 4 -1 19 -9 33 -12 22 -13 23 -13 5z"/>
 <path d="M2653 1845 c0 -33 2 -45 4 -27 2 18 2 45 0 60 -2 15 -4 0 -4 -33z"/>
 <path d="M2640 1755 c0 -8 2 -15 4 -15 2 0 6 7 10 15 3 8 1 15 -4 15 -6 0 -10 -7 -10 -15z"/>
 <path d="M2633 1693 c-7 -20 -8 -33 -2 -33 13 0 22 24 17 47 -3 13 -7 9 -15 -14z"/>
 <path d="M2615 1640 c3 -5 2 -10 -3 -10 -5 0 -12 -9 -15 -20 -7 -29 8 -25 21 5 15 32 15 35 1 35 -5 0 -7 -4 -4 -10z"/>
 <path d="M2565 1549 c-20 -38 -14 -49 9 -14 9 14 13 25 9 25 -5 0 -1 5 7 10 10 6 11 10 3 10 -7 0 -20 -14 -28 -31z"/>
 <path d="M488 1458 c-7 -13 -11 -26 -10 -30 1 -5 -2 -8 -7 -8 -5 0 -11 -9 -14 -19 -9 -36 21 -11 34 27 7 21 17 40 23 44 8 6 7 8 -1 8 -7 0 -18 -10 -25 -22z"/>
 <path d="M426 1322 c-9 -26 -18 -69 -21 -96 -3 -26 -7 -52 -11 -57 -8 -14 7 -99 18 -99 5 0 7 24 4 55 -3 30 -2 65 3 77 4 13 11 37 15 53 5 23 4 27 -5 15 -9 -12 -10 -12 -6 5 3 11 12 37 21 58 9 20 12 37 7 37 -5 0 -17 -22 -25 -48z m-9 -99 c-4 -3 -7 0 -7 7 0 7 3 10 7 7 3 -4 3 -10 0 -14z"/>
 <path d="M407 1033 c-2 -5 2 -22 8 -40 7 -21 15 -29 23 -24 9 5 9 14 0 39 -12 31 -23 40 -31 25z"/>
 <path d="M430 946 c0 -17 24 -76 32 -76 4 0 5 -6 2 -14 -3 -7 2 -20 10 -29 9 -9 16 -22 16 -30 0 -18 68 -121 109 -166 17 -19 31 -29 31 -23 0 7 -9 20 -20 29 -11 10 -20 23 -20 30 0 7 -4 13 -10 13 -14 0 -71 81 -64 91 6 11 -27 69 -39 69 -4 0 -5 4 -2 10 3 5 -5 31 -19 57 -14 26 -25 44 -26 39z"/>
 <path d="M1127 509 c7 -7 15 -10 18 -7 3 3 -2 9 -12 12 -14 6 -15 5 -6 -5z"/>
 <path d="M1243 443 c4 -3 10 -3 14 0 3 4 0 7 -7 7 -7 0 -10 -3 -7 -7z"/>
 </g>
<g id="layer113" fill="#dbba4f" stroke="none">
 <path d="M0 1460 l0 -1460 1595 0 1595 0 0 1460 0 1460 -1595 0 -1595 0 0 -1460z m1685 1305 c22 -1 47 -5 56 -9 9 -4 20 -6 25 -5 5 1 16 0 24 -4 8 -3 46 -13 83 -22 115 -27 268 -98 384 -176 40 -27 74 -49 76 -49 2 0 29 -24 59 -52 30 -29 67 -61 82 -71 14 -10 26 -23 26 -29 0 -6 -10 -3 -22 8 l-23 19 18 -22 c11 -12 24 -20 30 -17 28 10 177 -234 231 -379 61 -163 79 -276 73 -467 -4 -139 -9 -180 -32 -260 -90 -319 -307 -576 -585 -690 -121 -50 -209 -65 -370 -64 -122 0 -161 5 -246 27 -164 42 -303 105 -429 195 -74 52 -185 149 -185 161 0 9 616 625 630 629 5 2 33 -15 62 -38 152 -121 382 -182 563 -151 77 14 195 64 250 108 39 30 70 79 57 87 -5 3 -7 46 -6 95 2 50 -1 93 -5 96 -5 3 -7 14 -4 24 3 10 0 22 -6 25 -5 4 -8 13 -5 20 7 18 -48 165 -92 245 -106 194 -323 402 -518 496 -109 52 -241 99 -255 91 -5 -4 -13 -1 -16 5 -4 5 -14 8 -22 5 -9 -4 -22 -1 -29 5 -17 14 -121 23 -249 22 -150 -1 -174 -3 -180 -13 -3 -5 -12 -7 -20 -4 -7 3 -53 -7 -102 -22 -48 -15 -108 -33 -133 -40 l-45 -13 35 30 c86 74 304 164 460 189 41 7 81 16 89 20 13 7 95 5 266 -5z m-260 -261 c222 -38 457 -156 627 -315 l63 -58 -319 -317 c-230 -229 -322 -315 -331 -308 -7 5 -28 21 -46 36 -56 44 -154 95 -236 123 -103 35 -266 45 -366 21 -86 -20 -177 -66 -233 -118 -48 -44 -74 -81 -52 -73 10 4 13 -15 14 -77 1 -46 2 -95 3 -109 1 -33 40 -161 52 -174 5 -5 9 -17 9 -28 0 -28 77 -163 146 -255 51 -69 221 -232 287 -275 120 -80 369 -186 404 -173 7 3 15 0 19 -5 3 -6 15 -9 25 -6 10 3 21 1 24 -4 4 -5 16 -9 28 -9 12 -1 47 -4 77 -6 98 -9 153 -8 325 9 28 3 64 11 80 18 17 7 33 12 37 11 5 -1 35 7 69 19 66 23 87 18 49 -12 -26 -19 -201 -108 -255 -128 -38 -14 -171 -50 -210 -57 -56 -9 -355 -12 -361 -3 -3 5 -18 9 -33 9 -51 0 -238 59 -338 106 -118 56 -185 101 -322 213 -121 101 -206 211 -281 366 -95 195 -123 319 -124 540 0 143 3 172 28 270 53 209 144 367 300 520 142 140 278 213 465 250 92 18 269 18 376 -1z m855 -2014 c0 -5 -5 -10 -11 -10 -5 0 -7 5 -4 10 3 6 8 10 11 10 2 0 4 -4 4 -10z"/>
 <path d="M2582 2172 c12 -28 23 -50 25 -48 6 5 -20 71 -33 86 -8 8 -5 -8 8 -38z"/>
 <path d="M2610 2105 c0 -5 5 -17 10 -25 5 -8 10 -10 10 -5 0 6 -5 17 -10 25 -5 8 -10 11 -10 5z"/>
 <path d="M2631 2040 c0 -8 4 -24 9 -35 5 -13 9 -14 9 -5 0 8 -4 24 -9 35 -5 13 -9 14 -9 5z"/>
 <path d="M2650 1939 c0 -11 4 -18 10 -14 5 3 7 12 3 20 -7 21 -13 19 -13 -6z"/>
 <path d="M2641 1708 c0 -9 -4 -25 -7 -35 -5 -14 -4 -15 5 -7 7 7 11 22 8 35 -2 13 -5 16 -6 7z"/>
 <path d="M2616 1635 c-9 -26 -7 -32 5 -12 6 10 9 21 6 23 -2 3 -7 -2 -11 -11z"/>
 <path d="M2573 1548 c-15 -20 -25 -38 -20 -38 3 0 12 11 21 25 17 26 16 35 -1 13z"/>
 <path d="M485 1454 c-9 -15 -12 -23 -6 -20 11 7 35 46 28 46 -3 0 -12 -12 -22 -26z"/>
 <path d="M460 1410 c0 -7 3 -10 7 -7 3 4 3 10 0 14 -4 3 -7 0 -7 -7z"/>
 <path d="M422 1313 c-15 -53 -25 -109 -19 -103 7 7 38 132 34 137 -2 2 -9 -14 -15 -34z"/>
 <path d="M396 1168 c-3 -18 -2 -49 3 -68 8 -31 9 -28 10 33 1 72 -5 87 -13 35z"/>
 <path d="M409 1035 c-3 -6 0 -26 7 -45 7 -20 13 -26 12 -15 0 31 -13 71 -19 60z"/>
 <path d="M431 940 c0 -8 4 -22 9 -30 12 -18 12 -2 0 25 -6 13 -9 15 -9 5z"/>
 <path d="M450 880 c0 -7 3 -10 7 -7 3 4 3 10 0 14 -4 3 -7 0 -7 -7z"/>
 <path d="M460 855 c0 -5 5 -17 10 -25 5 -8 10 -10 10 -5 0 6 -5 17 -10 25 -5 8 -10 11 -10 5z"/>
 <path d="M490 795 c0 -11 49 -95 56 -95 3 0 -7 21 -22 48 -33 56 -34 58 -34 47z"/>
 <path d="M550 686 c0 -2 8 -10 18 -17 15 -13 16 -12 3 4 -13 16 -21 21 -21 13z"/>
 </g>
<g id="layer114" fill="#e5c556" stroke="none">
 <path d="M0 1460 l0 -1460 1595 0 1595 0 0 1460 0 1460 -1595 0 -1595 0 0 -1460z m1700 1307 c14 -1 31 -6 38 -11 7 -4 19 -5 27 -2 8 3 17 1 21 -5 3 -6 16 -9 27 -8 12 1 29 0 37 -3 8 -3 51 -18 95 -33 44 -15 96 -35 116 -46 20 -10 43 -19 50 -19 8 0 36 -16 63 -35 27 -19 55 -35 61 -35 6 0 27 -13 45 -30 18 -16 39 -30 45 -30 6 0 21 -13 33 -30 13 -16 28 -30 35 -30 19 0 110 -97 103 -109 -4 -6 -2 -9 6 -6 29 11 176 -228 232 -378 61 -163 79 -276 73 -467 -4 -139 -9 -180 -32 -260 -90 -319 -307 -576 -585 -690 -121 -50 -209 -65 -370 -64 -122 0 -161 5 -246 27 -164 42 -303 105 -429 195 -74 52 -185 149 -185 161 0 9 616 625 630 629 5 2 33 -15 62 -38 152 -121 382 -182 563 -151 77 14 195 64 250 108 39 30 70 79 57 87 -5 3 -7 46 -6 95 2 50 -1 93 -6 96 -5 3 -7 12 -3 20 3 9 0 21 -6 29 -6 7 -8 15 -5 19 9 8 -55 174 -82 215 -13 19 -24 39 -24 45 0 14 -63 108 -99 146 -17 18 -31 36 -31 39 0 10 -118 122 -130 122 -6 0 -13 7 -16 14 -11 28 -221 170 -242 164 -4 -1 -19 5 -33 15 -32 21 -199 78 -210 72 -4 -3 -11 -1 -14 5 -4 6 -15 8 -25 5 -10 -3 -21 -1 -25 5 -4 7 -18 9 -30 6 -13 -3 -26 -3 -29 2 -12 20 -327 20 -353 0 -7 -6 -21 -7 -31 -4 -11 4 -32 1 -48 -5 -16 -7 -32 -12 -36 -11 -15 3 -170 -50 -204 -70 -19 -11 -38 -17 -42 -14 -6 7 46 55 60 56 4 0 44 24 89 53 45 28 86 51 90 50 5 -2 25 6 44 17 20 11 40 20 45 20 5 0 21 5 37 12 15 6 33 12 38 12 45 6 96 19 100 26 3 5 12 7 20 3 9 -3 21 0 29 6 7 6 20 9 28 6 8 -3 25 -2 39 3 20 8 182 7 289 -1z m-275 -263 c222 -38 457 -156 627 -315 l63 -58 -319 -317 c-230 -229 -322 -315 -331 -308 -7 5 -28 21 -46 36 -56 44 -154 95 -236 123 -59 20 -105 28 -188 32 -132 6 -216 -10 -315 -63 -82 -43 -121 -82 -127 -126 -6 -43 -4 -155 2 -193 3 -16 7 -41 9 -55 6 -44 26 -109 36 -115 6 -3 10 -15 10 -26 0 -17 38 -99 73 -154 41 -67 99 -145 108 -145 5 0 12 -8 16 -17 7 -23 124 -143 138 -143 6 0 16 -9 23 -20 7 -11 19 -20 27 -20 8 0 15 -4 15 -9 0 -12 113 -83 160 -101 19 -7 42 -19 50 -26 19 -15 144 -66 156 -63 13 3 87 -12 99 -21 6 -4 17 -8 25 -8 8 -1 33 -5 55 -8 22 -4 108 -7 190 -6 189 0 203 1 210 12 3 5 12 7 20 4 8 -3 28 1 46 10 17 9 35 13 39 11 11 -7 146 42 189 68 22 13 32 16 29 7 -2 -8 -13 -18 -24 -24 -10 -6 -42 -28 -71 -48 -29 -21 -56 -38 -61 -38 -5 0 -17 -9 -27 -20 -10 -11 -21 -17 -26 -15 -4 3 -29 -6 -55 -20 -26 -14 -52 -25 -58 -25 -6 0 -27 -8 -46 -18 -19 -11 -40 -17 -46 -15 -6 2 -24 -2 -40 -8 -16 -6 -40 -14 -54 -16 -14 -2 -38 -6 -55 -9 -55 -10 -359 -13 -375 -4 -9 5 -34 11 -56 13 -21 2 -52 9 -68 16 -16 6 -41 13 -57 15 -16 1 -32 6 -36 9 -3 4 -13 7 -21 7 -13 0 -118 46 -162 71 -8 5 -37 20 -65 33 -27 13 -62 34 -76 47 -38 35 -100 83 -113 88 -6 2 -23 15 -38 30 -15 14 -41 40 -58 56 -56 54 -161 208 -210 310 -95 195 -123 319 -124 540 0 143 3 172 28 270 53 209 144 367 300 520 142 140 278 213 465 250 92 18 269 18 376 -1z"/>
 <path d="M2585 2170 c3 -5 8 -10 11 -10 3 0 2 5 -1 10 -3 6 -8 10 -11 10 -3 0 -2 -4 1 -10z"/>
 <path d="M2640 2010 c0 -7 3 -10 7 -7 3 4 3 10 0 14 -4 3 -7 0 -7 -7z"/>
 <path d="M2556 1523 c-6 -14 -5 -15 5 -6 7 7 10 15 7 18 -3 3 -9 -2 -12 -12z"/>
 <path d="M410 1270 c0 -7 3 -10 7 -7 3 4 3 10 0 14 -4 3 -7 0 -7 -7z"/>
 <path d="M400 1110 c0 -7 3 -10 7 -7 3 4 3 10 0 14 -4 3 -7 0 -7 -7z"/>
 <path d="M500 770 c0 -7 3 -10 7 -7 3 4 3 10 0 14 -4 3 -7 0 -7 -7z"/>
 <path d="M530 720 c0 -7 3 -10 7 -7 3 4 3 10 0 14 -4 3 -7 0 -7 -7z"/>
 </g>
<g id="layer115" fill="#d7eefd" stroke="none">
 <path d="M0 1460 l0 -1460 1595 0 1595 0 0 1460 0 1460 -1595 0 -1595 0 0 -1460z m1710 1308 c254 -30 517 -155 712 -337 181 -169 315 -413 368 -671 19 -91 21 -127 17 -270 -4 -139 -9 -180 -32 -260 -90 -319 -307 -576 -585 -690 -121 -50 -209 -65 -370 -64 -122 0 -161 5 -246 27 -164 42 -303 105 -429 195 -74 52 -185 149 -185 161 0 9 616 625 630 629 5 2 33 -15 62 -38 152 -121 382 -182 564 -151 83 15 216 76 265 122 l35 34 -2 100 c-5 263 -104 477 -322 697 -240 244 -522 362 -862 363 -185 0 -317 -28 -524 -111 -35 -14 -12 15 49 61 72 54 211 123 320 159 155 50 350 67 535 44z m-285 -264 c222 -38 457 -156 627 -315 l63 -58 -319 -317 c-230 -229 -322 -315 -331 -308 -7 5 -28 21 -46 36 -56 44 -154 95 -236 123 -103 35 -266 45 -366 21 -81 -19 -174 -65 -225 -110 l-37 -34 -3 -94 c-10 -294 186 -638 484 -849 102 -73 168 -108 278 -148 157 -56 254 -73 421 -73 188 -1 308 25 523 112 12 5 22 6 22 2 0 -27 -164 -131 -290 -185 -76 -32 -118 -44 -265 -77 -54 -12 -373 -7 -457 8 -36 6 -109 27 -162 47 -333 120 -579 337 -726 640 -95 195 -123 319 -124 540 0 143 3 172 28 270 53 209 144 367 300 520 142 140 278 213 465 250 92 18 269 18 376 -1z"/>
 </g>
<g id="layer116" fill="#fefad3" stroke="none">
 <path d="M0 1460 l0 -1460 1595 0 1595 0 0 1460 0 1460 -1595 0 -1595 0 0 -1460z m1710 1308 c275 -33 539 -165 747 -374 58 -59 104 -97 107 -91 3 7 4 3 1 -8 -6 -26 19 -60 37 -49 7 4 10 4 6 -1 -8 -9 22 -65 34 -65 4 0 8 -5 8 -11 0 -6 9 -22 20 -36 11 -14 20 -35 20 -45 0 -11 9 -32 19 -47 11 -15 23 -39 26 -54 4 -15 11 -27 17 -27 5 0 7 -4 4 -8 -3 -5 6 -44 20 -88 14 -43 26 -87 27 -96 1 -10 4 -18 7 -18 3 0 5 -32 4 -71 0 -38 3 -72 8 -75 11 -7 10 -132 -1 -139 -6 -3 -8 -30 -7 -60 2 -31 -2 -65 -9 -79 -9 -16 -10 -28 -4 -32 6 -3 6 -10 1 -17 -5 -7 -13 -28 -17 -47 -4 -19 -11 -39 -15 -45 -5 -5 -10 -25 -13 -43 -3 -18 -11 -39 -17 -47 -6 -8 -8 -20 -4 -26 5 -8 3 -9 -6 -4 -10 6 -12 4 -7 -8 3 -10 3 -17 -1 -17 -9 0 -36 -60 -35 -78 1 -7 -1 -11 -5 -8 -3 3 -19 -13 -35 -37 -17 -23 -49 -67 -71 -97 -22 -30 -40 -59 -38 -63 1 -5 -1 -6 -6 -3 -5 3 -23 -10 -41 -29 -17 -19 -37 -35 -43 -35 -6 0 -8 -3 -5 -6 3 -4 -22 -25 -56 -48 -34 -22 -66 -47 -70 -54 -5 -7 -13 -10 -18 -6 -6 3 -18 -4 -28 -15 -10 -12 -25 -21 -33 -21 -8 0 -41 -9 -73 -20 -32 -11 -61 -18 -63 -15 -3 3 -11 0 -19 -6 -13 -11 -71 -20 -125 -20 -15 0 -30 -4 -33 -9 -8 -14 -182 -13 -190 0 -5 8 -11 8 -20 0 -10 -8 -21 -7 -45 5 -17 9 -35 13 -40 10 -5 -3 -27 -1 -47 4 -21 6 -47 12 -58 14 -11 2 -29 8 -40 12 -11 4 -56 22 -100 38 -44 17 -102 45 -129 63 -26 18 -57 31 -67 29 -10 -2 -18 1 -16 8 1 7 -6 11 -15 11 -10 -1 -15 2 -13 7 6 9 -53 55 -66 52 -4 -2 -6 4 -2 13 5 13 2 15 -17 9 -13 -4 -20 -3 -17 2 8 13 -41 56 -53 48 -6 -4 -10 1 -10 9 0 9 -4 16 -9 16 -5 0 -11 6 -14 14 -7 19 12 88 22 82 9 -6 32 19 69 72 13 18 27 30 32 27 9 -6 39 22 84 76 16 19 24 27 20 19 -7 -13 -6 -13 9 -1 10 8 16 16 13 18 -5 5 53 63 64 63 8 0 24 30 22 42 -1 4 5 5 13 2 8 -4 15 -2 15 3 0 5 7 18 16 29 8 10 13 12 9 4 -4 -8 1 -6 9 4 9 11 16 26 16 35 0 8 3 11 7 8 3 -4 19 9 35 27 16 19 40 37 54 40 17 5 24 12 22 24 -4 17 31 52 52 52 6 0 9 4 6 8 -3 5 6 15 20 23 20 10 29 11 44 1 11 -7 27 -12 37 -12 9 0 14 -3 10 -6 -8 -9 8 -23 72 -64 30 -19 62 -33 73 -33 10 1 16 -2 13 -8 -4 -5 2 -9 12 -9 10 0 29 -9 43 -20 19 -15 28 -16 39 -7 12 10 13 9 7 -1 -6 -10 -1 -13 20 -12 36 3 93 -10 100 -21 7 -12 101 -11 109 1 4 6 11 8 16 5 5 -4 9 -3 9 2 0 4 23 9 51 10 28 1 62 9 76 18 17 12 23 13 18 4 -5 -8 1 -5 13 5 12 11 22 16 22 12 0 -4 13 1 29 10 17 10 28 21 25 26 -3 4 3 5 12 1 12 -4 15 -3 10 5 -5 8 -2 10 8 6 9 -3 16 -2 16 2 0 5 15 19 33 31 l32 22 -1 98 c-5 260 -105 476 -322 695 -240 244 -522 362 -862 363 -185 0 -317 -28 -524 -111 -35 -14 -12 15 49 61 72 54 211 123 320 159 155 50 350 67 535 44z m-278 -256 c8 -6 17 -9 20 -6 13 13 279 -79 318 -110 24 -19 71 -37 81 -30 5 3 8 0 7 -7 -2 -6 3 -14 11 -17 9 -3 11 0 6 9 -5 8 -4 11 1 6 5 -5 9 -14 9 -20 0 -7 5 -12 10 -12 16 -1 67 -36 96 -66 15 -15 30 -25 33 -22 3 4 6 1 6 -6 0 -7 5 -9 10 -6 6 4 9 2 8 -3 -2 -5 15 -25 36 -44 31 -28 37 -39 31 -54 -4 -10 -7 -23 -6 -27 1 -5 -2 -6 -7 -3 -9 5 -72 -59 -72 -74 0 -5 -16 -18 -35 -30 -19 -12 -33 -26 -29 -31 3 -5 0 -9 -6 -9 -7 0 -9 -7 -6 -16 3 -8 2 -13 -3 -9 -15 9 -39 -5 -44 -27 -3 -11 -10 -18 -15 -14 -10 6 -83 -70 -74 -78 3 -3 -1 -6 -9 -6 -8 0 -28 -15 -45 -32 -17 -18 -50 -50 -72 -71 -23 -21 -39 -44 -35 -49 3 -6 2 -8 -4 -5 -12 7 -84 -69 -75 -79 4 -4 1 -4 -6 0 -7 4 -15 1 -18 -8 -3 -9 -11 -16 -16 -16 -6 0 -19 -11 -30 -25 -24 -31 -31 -31 -72 0 -18 14 -36 22 -39 18 -4 -3 -7 0 -7 8 0 16 -4 18 -116 72 -43 21 -87 43 -98 49 -10 5 -33 12 -50 14 -53 7 -65 10 -71 15 -6 7 -166 2 -173 -6 -3 -3 -18 -5 -33 -5 -14 0 -39 -7 -55 -14 -15 -8 -31 -13 -35 -10 -5 3 -25 -6 -46 -19 -21 -13 -42 -25 -48 -27 -13 -4 -59 -23 -65 -28 -2 -2 2 -8 10 -13 13 -9 13 -10 0 -6 -9 3 -25 -3 -35 -12 -17 -13 -21 -31 -23 -106 -11 -289 187 -636 484 -846 102 -73 168 -108 278 -148 157 -56 254 -73 421 -73 188 -1 308 25 523 112 12 5 22 6 22 2 0 -27 -164 -131 -290 -185 -76 -32 -118 -44 -265 -77 -54 -12 -373 -7 -457 8 -209 37 -480 181 -647 345 -41 40 -73 63 -84 62 -14 -3 -16 -1 -7 10 14 17 3 38 -16 31 -9 -3 -11 0 -7 11 4 9 -1 19 -10 25 -10 5 -17 13 -17 17 0 5 -13 23 -30 41 -16 18 -30 38 -30 46 0 8 -4 14 -10 14 -5 0 -10 4 -10 9 0 17 -67 151 -72 145 -3 -3 -6 1 -5 8 2 20 -15 92 -23 103 -10 13 -41 132 -39 148 1 7 -2 23 -8 37 -13 33 -15 263 -2 314 5 23 11 62 13 87 2 25 10 57 17 70 7 13 12 29 11 36 -1 6 2 14 8 18 5 3 10 15 10 26 0 34 92 229 121 255 10 9 19 26 19 36 0 11 4 17 9 13 10 -6 37 34 33 48 -1 4 5 7 14 7 10 0 14 5 10 16 -3 8 -2 13 2 11 4 -3 18 -1 31 4 17 7 22 15 18 29 -3 11 0 20 6 20 7 1 28 14 47 30 19 17 38 30 43 30 4 0 18 11 31 25 13 14 27 25 31 25 5 0 24 12 43 27 20 15 32 20 27 12 -6 -11 -5 -12 6 -1 7 6 20 12 28 12 8 0 22 6 30 14 19 16 188 69 199 62 4 -3 13 -2 19 2 20 13 340 7 355 -6z m1178 -196 c0 -3 -5 -8 -12 -12 -7 -4 -8 -3 -4 4 7 12 16 16 16 8z m-2173 -203 c-4 -3 -7 0 -7 7 0 7 3 10 7 7 3 -4 3 -10 0 -14z m1030 -720 c-4 -3 -7 0 -7 7 0 7 3 10 7 7 3 -4 3 -10 0 -14z m-227 -217 c0 -2 -8 -10 -17 -17 -16 -13 -17 -12 -4 4 13 16 21 21 21 13z"/>
 <path d="M1509 1433 c-13 -16 -12 -17 4 -4 9 7 17 15 17 17 0 8 -8 3 -21 -13z"/>
 <path d="M1429 1353 c-13 -16 -12 -17 4 -4 9 7 17 15 17 17 0 8 -8 3 -21 -13z"/>
 </g>
<g id="layer117" fill="#fefefe" stroke="none">
 <path d="M0 1460 l0 -1460 1595 0 1595 0 0 1460 0 1460 -1595 0 -1595 0 0 -1460z m1690 1328 c85 -7 152 -20 210 -39 111 -36 203 -73 232 -93 12 -9 30 -16 39 -16 9 0 24 -9 34 -20 10 -11 28 -20 41 -20 13 0 28 -9 34 -20 6 -11 28 -31 49 -44 49 -31 171 -154 171 -172 0 -8 4 -14 9 -14 6 0 18 -13 27 -30 13 -21 21 -26 27 -17 5 8 6 5 3 -8 -7 -26 18 -60 36 -49 7 4 10 4 6 -1 -8 -9 22 -65 34 -65 4 0 8 -5 8 -11 0 -6 9 -22 20 -36 11 -14 20 -35 20 -45 0 -11 9 -32 19 -47 11 -15 23 -39 26 -54 4 -15 11 -27 17 -27 5 0 7 -4 4 -8 -3 -5 6 -44 20 -88 14 -43 26 -87 27 -96 1 -10 4 -18 7 -18 3 0 5 -32 4 -71 0 -38 3 -72 8 -75 11 -7 10 -132 -1 -139 -6 -3 -8 -30 -7 -60 2 -31 -2 -65 -9 -79 -9 -16 -10 -28 -4 -32 6 -3 6 -10 1 -17 -5 -7 -13 -28 -17 -47 -4 -19 -11 -39 -15 -45 -5 -5 -10 -25 -13 -43 -3 -18 -11 -39 -17 -47 -6 -8 -8 -20 -4 -26 5 -8 3 -9 -6 -4 -10 6 -12 4 -7 -8 3 -10 3 -17 -1 -17 -9 0 -36 -60 -35 -78 1 -7 -1 -11 -5 -8 -3 3 -19 -13 -35 -37 -17 -23 -49 -67 -71 -97 -22 -30 -40 -59 -38 -63 1 -5 -1 -6 -6 -3 -5 3 -23 -10 -41 -29 -17 -19 -37 -35 -43 -35 -6 0 -8 -3 -5 -6 3 -4 -22 -25 -56 -48 -34 -22 -68 -48 -75 -56 -8 -8 -11 -9 -7 -2 10 19 -2 14 -29 -13 -14 -14 -31 -25 -39 -25 -8 0 -40 -9 -72 -20 -32 -11 -61 -18 -63 -15 -3 3 -11 0 -19 -6 -13 -11 -71 -20 -125 -20 -15 0 -30 -4 -33 -9 -8 -14 -182 -13 -190 0 -5 8 -11 8 -20 0 -10 -8 -21 -7 -45 5 -17 9 -35 13 -40 10 -5 -3 -27 -1 -47 4 -21 6 -47 12 -58 14 -11 2 -29 8 -40 12 -11 4 -56 22 -100 38 -44 17 -102 45 -129 63 -26 18 -57 31 -67 29 -10 -2 -18 1 -16 8 1 7 -6 11 -15 11 -10 -1 -15 2 -13 7 6 9 -53 55 -66 52 -4 -2 -6 4 -2 13 5 13 2 15 -17 9 -13 -4 -20 -3 -17 2 8 13 -41 56 -53 48 -6 -4 -10 1 -10 9 0 9 -4 16 -9 16 -5 0 -11 6 -14 14 -7 19 12 88 22 82 9 -6 32 19 69 72 13 18 27 30 32 27 9 -6 39 22 84 76 16 19 24 27 20 19 -7 -13 -6 -13 9 -1 10 8 16 16 13 18 -5 5 53 63 64 63 8 0 24 30 22 42 -1 4 5 5 13 2 8 -4 15 -2 15 3 0 5 7 18 16 29 8 10 13 12 9 4 -4 -8 1 -6 9 4 9 11 16 26 16 35 0 8 3 11 7 8 3 -4 19 9 35 27 16 19 40 37 54 40 17 5 24 12 22 24 -4 17 31 52 52 52 6 0 9 4 6 8 -3 5 6 15 20 23 20 10 29 11 44 1 11 -7 27 -12 37 -12 9 0 14 -3 10 -6 -8 -9 8 -23 72 -64 30 -19 62 -33 73 -33 10 1 16 -2 13 -8 -4 -5 2 -9 12 -9 10 0 29 -9 43 -20 19 -15 28 -16 39 -7 12 10 13 9 7 -1 -6 -10 -1 -13 20 -12 36 3 93 -10 100 -21 7 -12 101 -11 109 1 4 6 11 8 16 5 5 -4 9 -3 9 2 0 4 23 9 51 10 28 1 62 9 76 18 17 12 23 13 18 4 -5 -8 1 -5 13 5 12 11 22 16 22 12 0 -4 13 1 29 10 17 10 28 21 25 26 -3 4 3 5 12 1 13 -5 15 -3 9 7 -5 9 -4 11 3 6 13 -8 56 28 57 47 1 7 5 43 9 81 10 83 -17 232 -56 306 -10 19 -18 40 -18 47 0 7 -9 30 -20 50 -11 21 -20 43 -20 50 0 7 -9 17 -19 23 -11 5 -25 26 -31 45 -6 19 -15 35 -18 35 -4 0 -18 16 -31 35 -31 46 -107 125 -119 125 -5 0 -12 9 -15 19 -2 11 -24 32 -47 48 -23 15 -54 39 -69 53 -14 13 -39 32 -56 41 -16 8 -61 33 -100 53 -165 89 -354 136 -546 136 -139 0 -343 -37 -366 -67 -7 -8 -19 -13 -27 -10 -9 4 -22 -1 -31 -9 -8 -9 -15 -12 -15 -9 0 4 -11 0 -25 -9 -14 -9 -30 -14 -35 -11 -13 8 -52 -20 -42 -30 4 -4 -1 -5 -11 -2 -10 4 -23 7 -28 7 -16 0 -10 24 14 53 69 85 317 212 497 254 134 31 250 37 430 21z m-258 -276 c8 -6 17 -9 20 -6 13 13 279 -79 318 -110 24 -19 71 -37 81 -30 5 3 8 0 7 -7 -2 -6 3 -14 11 -17 9 -3 11 0 6 9 -5 8 -4 11 1 6 5 -5 9 -14 9 -20 0 -7 5 -12 10 -12 16 -1 67 -36 96 -66 15 -15 30 -25 33 -22 3 4 6 1 6 -6 0 -7 5 -9 10 -6 6 4 9 2 8 -3 -2 -5 15 -25 36 -44 31 -28 37 -39 31 -54 -4 -10 -7 -23 -6 -27 1 -5 -2 -6 -7 -3 -9 5 -72 -59 -72 -74 0 -5 -16 -18 -35 -30 -19 -12 -33 -26 -29 -31 3 -5 0 -9 -6 -9 -7 0 -9 -7 -6 -16 3 -8 2 -13 -3 -9 -15 9 -39 -5 -44 -27 -3 -11 -10 -18 -15 -14 -10 6 -83 -70 -74 -78 3 -3 -1 -6 -9 -6 -8 0 -28 -15 -45 -32 -17 -18 -50 -50 -72 -71 -23 -21 -39 -43 -36 -48 3 -5 1 -8 -4 -7 -6 2 -33 -21 -61 -49 -28 -29 -54 -53 -57 -53 -3 0 -15 -11 -26 -25 -24 -31 -31 -31 -72 0 -18 14 -36 22 -39 18 -4 -3 -7 0 -7 8 0 16 -4 18 -116 72 -43 21 -87 43 -98 49 -10 5 -33 12 -50 14 -53 7 -65 10 -71 15 -6 7 -166 2 -173 -6 -3 -3 -18 -5 -33 -5 -14 0 -39 -7 -55 -14 -15 -8 -31 -13 -35 -10 -5 3 -25 -6 -46 -19 -21 -13 -42 -25 -48 -27 -13 -4 -59 -23 -65 -28 -2 -2 2 -8 10 -13 13 -9 12 -10 -2 -5 -22 7 -30 -7 -34 -58 -13 -163 34 -375 107 -478 11 -14 19 -31 19 -37 0 -19 80 -127 110 -150 17 -12 30 -28 30 -36 0 -29 196 -197 273 -234 25 -12 51 -29 57 -37 7 -7 20 -14 30 -14 10 0 23 -6 29 -13 6 -8 30 -20 53 -27 24 -7 57 -18 73 -25 44 -18 68 -25 111 -30 22 -3 62 -11 89 -17 75 -19 303 -16 400 5 151 34 170 40 223 69 28 16 52 26 52 23 0 -4 16 5 35 19 19 15 35 22 35 16 0 -6 4 -9 9 -5 23 14 20 -19 -5 -53 -29 -41 -75 -75 -134 -103 -19 -9 -41 -23 -49 -32 -7 -10 -21 -17 -30 -18 -9 0 -29 -9 -46 -20 -50 -31 -144 -63 -248 -84 -20 -4 -27 -10 -23 -20 3 -9 -1 -15 -9 -15 -8 0 -12 6 -9 13 4 11 -4 12 -43 4 -132 -27 -400 -9 -528 35 -16 5 -46 13 -65 18 -19 4 -59 17 -87 29 -29 11 -53 18 -53 14 0 -3 -8 1 -17 9 -27 23 -79 48 -103 48 -11 0 -20 7 -20 15 0 9 -11 21 -25 27 -14 6 -25 15 -25 19 0 4 -7 9 -15 11 -28 6 -174 133 -195 171 -19 33 -30 41 -51 39 -3 -1 -5 9 -5 21 1 12 -4 21 -11 20 -8 -2 -10 4 -6 13 4 10 -1 20 -10 26 -10 5 -17 13 -17 17 0 5 -13 23 -30 41 -16 18 -30 38 -30 46 0 8 -4 14 -10 14 -5 0 -10 4 -10 9 0 17 -67 151 -72 145 -3 -3 -6 1 -5 8 2 20 -15 92 -23 103 -10 13 -41 132 -39 148 1 7 -2 23 -8 37 -13 33 -15 263 -2 314 5 23 11 62 13 87 2 25 10 57 17 70 7 13 12 29 11 36 -1 6 2 14 8 18 5 3 10 15 10 26 0 34 92 229 121 255 10 9 19 26 19 36 0 11 4 17 9 13 10 -6 37 34 33 48 -1 4 5 7 14 7 10 0 14 5 10 16 -3 8 -2 13 2 11 4 -3 18 -1 31 4 17 7 22 15 18 29 -3 11 0 20 6 20 7 1 28 14 47 30 19 17 38 30 43 30 4 0 18 11 31 25 13 14 27 25 31 25 5 0 24 12 43 27 20 15 32 20 27 12 -6 -11 -5 -12 6 -1 7 6 20 12 28 12 8 0 22 6 30 14 19 16 188 69 199 62 4 -3 13 -2 19 2 20 13 340 7 355 -6z m-605 -49 c-4 -3 -10 -3 -14 0 -3 4 0 7 7 7 7 0 10 -3 7 -7z m1783 -147 c0 -3 -5 -8 -12 -12 -7 -4 -8 -3 -4 4 7 12 16 16 16 8z m-2173 -203 c-4 -3 -7 0 -7 7 0 7 3 10 7 7 3 -4 3 -10 0 -14z m940 -590 c-4 -3 -10 -3 -14 0 -3 4 0 7 7 7 7 0 10 -3 7 -7z m90 -130 c-4 -3 -7 0 -7 7 0 7 3 10 7 7 3 -4 3 -10 0 -14z m-227 -217 c0 -2 -8 -10 -17 -17 -16 -13 -17 -12 -4 4 13 16 21 21 21 13z"/>
 <path d="M1509 1433 c-13 -16 -12 -17 4 -4 9 7 17 15 17 17 0 8 -8 3 -21 -13z"/>
 <path d="M1429 1353 c-13 -16 -12 -17 4 -4 9 7 17 15 17 17 0 8 -8 3 -21 -13z"/>
 </g>

</svg>